%TF.GenerationSoftware,KiCad,Pcbnew,10.0.0*%
%TF.CreationDate,2026-04-27T10:41:34+12:00*%
%TF.ProjectId,controller,636f6e74-726f-46c6-9c65-722e6b696361,1.0.0*%
%TF.SameCoordinates,Original*%
%TF.FileFunction,Profile,NP*%
%FSLAX46Y46*%
G04 Gerber Fmt 4.6, Leading zero omitted, Abs format (unit mm)*
G04 Created by KiCad (PCBNEW 10.0.0) date 2026-04-27 10:41:34*
%MOMM*%
%LPD*%
G01*
G04 APERTURE LIST*
%TA.AperFunction,Profile*%
%ADD10C,0.050000*%
%TD*%
G04 APERTURE END LIST*
D10*
X117800000Y-77528427D02*
X117800000Y-96871573D01*
X117800000Y-77528427D02*
G75*
G02*
X118385794Y-76114220I1999900J27D01*
G01*
X118385787Y-76114213D02*
X130214214Y-63685786D01*
X118385787Y-98285787D02*
G75*
G02*
X117799978Y-96871573I1414313J1414287D01*
G01*
X118385787Y-98285787D02*
X127714214Y-107614214D01*
X129128427Y-108200000D02*
G75*
G02*
X127714221Y-107614207I-27J1999900D01*
G01*
X129128427Y-108200000D02*
X137300000Y-108200000D01*
X130214214Y-63685786D02*
G75*
G02*
X131628427Y-63099978I1414286J-1414314D01*
G01*
X137300000Y-108200000D02*
G75*
G02*
X139300000Y-110200000I0J-2000000D01*
G01*
X139300000Y-116200000D02*
X139300000Y-110200000D01*
X141300000Y-118200000D02*
G75*
G02*
X139300000Y-116200000I0J2000000D01*
G01*
X158300000Y-87200000D02*
G75*
G02*
X139300000Y-87200000I-9500000J0D01*
G01*
X139300000Y-87200000D02*
G75*
G02*
X158300000Y-87200000I9500000J0D01*
G01*
X156300000Y-118200000D02*
X141300000Y-118200000D01*
X158300000Y-110200000D02*
X158300000Y-116200000D01*
X158300000Y-110200000D02*
G75*
G02*
X160300000Y-108200000I2000000J0D01*
G01*
X158300000Y-116200000D02*
G75*
G02*
X156300000Y-118200000I-2000000J0D01*
G01*
X175800000Y-63100000D02*
X131628427Y-63100000D01*
X175800000Y-63100000D02*
G75*
G02*
X177800000Y-65100000I0J-2000000D01*
G01*
X175800000Y-108200000D02*
X160300000Y-108200000D01*
X177800000Y-65100000D02*
X177800000Y-106200000D01*
X177800000Y-106200000D02*
G75*
G02*
X175800000Y-108200000I-2000000J0D01*
G01*
M02*
