%TF.GenerationSoftware,KiCad,Pcbnew,10.0.0*%
%TF.CreationDate,2026-04-27T10:41:34+12:00*%
%TF.ProjectId,controller,636f6e74-726f-46c6-9c65-722e6b696361,1.0.0*%
%TF.SameCoordinates,Original*%
%TF.FileFunction,Legend,Top*%
%TF.FilePolarity,Positive*%
%FSLAX46Y46*%
G04 Gerber Fmt 4.6, Leading zero omitted, Abs format (unit mm)*
G04 Created by KiCad (PCBNEW 10.0.0) date 2026-04-27 10:41:34*
%MOMM*%
%LPD*%
G01*
G04 APERTURE LIST*
%ADD10C,0.100000*%
%ADD11C,0.120000*%
G04 APERTURE END LIST*
D10*
X148119047Y-102005038D02*
X148023809Y-101957419D01*
X148023809Y-101957419D02*
X147880952Y-101957419D01*
X147880952Y-101957419D02*
X147738095Y-102005038D01*
X147738095Y-102005038D02*
X147642857Y-102100276D01*
X147642857Y-102100276D02*
X147595238Y-102195514D01*
X147595238Y-102195514D02*
X147547619Y-102385990D01*
X147547619Y-102385990D02*
X147547619Y-102528847D01*
X147547619Y-102528847D02*
X147595238Y-102719323D01*
X147595238Y-102719323D02*
X147642857Y-102814561D01*
X147642857Y-102814561D02*
X147738095Y-102909800D01*
X147738095Y-102909800D02*
X147880952Y-102957419D01*
X147880952Y-102957419D02*
X147976190Y-102957419D01*
X147976190Y-102957419D02*
X148119047Y-102909800D01*
X148119047Y-102909800D02*
X148166666Y-102862180D01*
X148166666Y-102862180D02*
X148166666Y-102528847D01*
X148166666Y-102528847D02*
X147976190Y-102528847D01*
X148738095Y-102957419D02*
X148642857Y-102909800D01*
X148642857Y-102909800D02*
X148595238Y-102814561D01*
X148595238Y-102814561D02*
X148595238Y-101957419D01*
X149547619Y-102290752D02*
X149547619Y-102957419D01*
X149119048Y-102290752D02*
X149119048Y-102814561D01*
X149119048Y-102814561D02*
X149166667Y-102909800D01*
X149166667Y-102909800D02*
X149261905Y-102957419D01*
X149261905Y-102957419D02*
X149404762Y-102957419D01*
X149404762Y-102957419D02*
X149500000Y-102909800D01*
X149500000Y-102909800D02*
X149547619Y-102862180D01*
X150404762Y-102909800D02*
X150309524Y-102957419D01*
X150309524Y-102957419D02*
X150119048Y-102957419D01*
X150119048Y-102957419D02*
X150023810Y-102909800D01*
X150023810Y-102909800D02*
X149976191Y-102814561D01*
X149976191Y-102814561D02*
X149976191Y-102433609D01*
X149976191Y-102433609D02*
X150023810Y-102338371D01*
X150023810Y-102338371D02*
X150119048Y-102290752D01*
X150119048Y-102290752D02*
X150309524Y-102290752D01*
X150309524Y-102290752D02*
X150404762Y-102338371D01*
X150404762Y-102338371D02*
X150452381Y-102433609D01*
X150452381Y-102433609D02*
X150452381Y-102528847D01*
X150452381Y-102528847D02*
X149976191Y-102624085D01*
X132800000Y-71200000D02*
X133900000Y-71200000D01*
X134300000Y-71200000D02*
X134320000Y-71200000D01*
X134720000Y-71200000D02*
X134740000Y-71200000D01*
X135140000Y-71200000D02*
X136240000Y-71200000D01*
X136640000Y-71200000D02*
X136660000Y-71200000D01*
X137060000Y-71200000D02*
X137080000Y-71200000D01*
X137480000Y-71200000D02*
X138580000Y-71200000D01*
X138980000Y-71200000D02*
X139000000Y-71200000D01*
X139400000Y-71200000D02*
X139420000Y-71200000D01*
X139820000Y-71200000D02*
X140920000Y-71200000D01*
X141320000Y-71200000D02*
X141340000Y-71200000D01*
X141740000Y-71200000D02*
X141760000Y-71200000D01*
X142160000Y-71200000D02*
X143260000Y-71200000D01*
X143660000Y-71200000D02*
X143680000Y-71200000D01*
X144080000Y-71200000D02*
X144100000Y-71200000D01*
X144500000Y-71200000D02*
X145600000Y-71200000D01*
X146000000Y-71200000D02*
X146020000Y-71200000D01*
X146420000Y-71200000D02*
X146440000Y-71200000D01*
X146840000Y-71200000D02*
X147940000Y-71200000D01*
X148340000Y-71200000D02*
X148360000Y-71200000D01*
X148760000Y-71200000D02*
X148780000Y-71200000D01*
X149180000Y-71200000D02*
X150280000Y-71200000D01*
X150680000Y-71200000D02*
X150700000Y-71200000D01*
X151100000Y-71200000D02*
X151120000Y-71200000D01*
X151520000Y-71200000D02*
X152620000Y-71200000D01*
X153020000Y-71200000D02*
X153040000Y-71200000D01*
X153440000Y-71200000D02*
X153460000Y-71200000D01*
X153860000Y-71200000D02*
X154960000Y-71200000D01*
X155360000Y-71200000D02*
X155380000Y-71200000D01*
X155780000Y-71200000D02*
X155800000Y-71200000D01*
X156200000Y-71200000D02*
X157300000Y-71200000D01*
X157700000Y-71200000D02*
X157720000Y-71200000D01*
X158120000Y-71200000D02*
X158140000Y-71200000D01*
X158540000Y-71200000D02*
X159640000Y-71200000D01*
X160040000Y-71200000D02*
X160060000Y-71200000D01*
X160460000Y-71200000D02*
X160480000Y-71200000D01*
X160880000Y-71200000D02*
X161980000Y-71200000D01*
X162380000Y-71200000D02*
X162400000Y-71200000D01*
X162800000Y-71200000D02*
X162820000Y-71200000D01*
X163220000Y-71200000D02*
X164320000Y-71200000D01*
X164720000Y-71200000D02*
X164740000Y-71200000D01*
X164800000Y-71200000D02*
X164800000Y-72300000D01*
X164800000Y-72700000D02*
X164800000Y-72720000D01*
X164800000Y-73120000D02*
X164800000Y-73140000D01*
X164800000Y-73540000D02*
X164800000Y-74640000D01*
X164800000Y-75040000D02*
X164800000Y-75060000D01*
X164800000Y-75460000D02*
X164800000Y-75480000D01*
X164800000Y-75880000D02*
X164800000Y-76980000D01*
X164800000Y-77380000D02*
X164800000Y-77400000D01*
X164800000Y-77800000D02*
X164800000Y-77820000D01*
X164800000Y-78220000D02*
X164800000Y-79320000D01*
X164800000Y-79720000D02*
X164800000Y-79740000D01*
X164800000Y-80140000D02*
X164800000Y-80160000D01*
X164800000Y-80560000D02*
X164800000Y-81660000D01*
X164800000Y-82060000D02*
X164800000Y-82080000D01*
X164800000Y-82480000D02*
X164800000Y-82500000D01*
X164800000Y-82900000D02*
X164800000Y-84000000D01*
X164800000Y-84400000D02*
X164800000Y-84420000D01*
X164800000Y-84820000D02*
X164800000Y-84840000D01*
X164800000Y-85240000D02*
X164800000Y-86340000D01*
X164800000Y-86740000D02*
X164800000Y-86760000D01*
X164800000Y-87160000D02*
X164800000Y-87180000D01*
X164800000Y-87580000D02*
X164800000Y-88680000D01*
X164800000Y-89080000D02*
X164800000Y-89100000D01*
X164800000Y-89500000D02*
X164800000Y-89520000D01*
X164800000Y-89920000D02*
X164800000Y-91020000D01*
X164800000Y-91420000D02*
X164800000Y-91440000D01*
X164800000Y-91840000D02*
X164800000Y-91860000D01*
X164800000Y-92260000D02*
X164800000Y-93360000D01*
X164800000Y-93760000D02*
X164800000Y-93780000D01*
X164800000Y-94180000D02*
X164800000Y-94200000D01*
X164800000Y-94600000D02*
X164800000Y-95700000D01*
X164800000Y-96100000D02*
X164800000Y-96120000D01*
X164800000Y-96520000D02*
X164800000Y-96540000D01*
X164800000Y-96940000D02*
X164800000Y-98040000D01*
X164800000Y-98440000D02*
X164800000Y-98460000D01*
X164800000Y-98860000D02*
X164800000Y-98880000D01*
X164800000Y-99280000D02*
X164800000Y-100380000D01*
X164800000Y-100780000D02*
X164800000Y-100800000D01*
X164800000Y-101200000D02*
X164800000Y-101220000D01*
X164800000Y-101620000D02*
X164800000Y-102720000D01*
X164800000Y-103120000D02*
X164800000Y-103140000D01*
X164800000Y-103200000D02*
X163700000Y-103200000D01*
X163300000Y-103200000D02*
X163280000Y-103200000D01*
X162880000Y-103200000D02*
X162860000Y-103200000D01*
X162460000Y-103200000D02*
X161360000Y-103200000D01*
X160960000Y-103200000D02*
X160940000Y-103200000D01*
X160540000Y-103200000D02*
X160520000Y-103200000D01*
X160120000Y-103200000D02*
X159020000Y-103200000D01*
X158620000Y-103200000D02*
X158600000Y-103200000D01*
X158200000Y-103200000D02*
X158180000Y-103200000D01*
X157780000Y-103200000D02*
X156680000Y-103200000D01*
X156280000Y-103200000D02*
X156260000Y-103200000D01*
X155860000Y-103200000D02*
X155840000Y-103200000D01*
X155440000Y-103200000D02*
X154340000Y-103200000D01*
X153940000Y-103200000D02*
X153920000Y-103200000D01*
X153520000Y-103200000D02*
X153500000Y-103200000D01*
X153100000Y-103200000D02*
X152000000Y-103200000D01*
X151600000Y-103200000D02*
X151580000Y-103200000D01*
X151180000Y-103200000D02*
X151160000Y-103200000D01*
X150760000Y-103200000D02*
X149660000Y-103200000D01*
X149260000Y-103200000D02*
X149240000Y-103200000D01*
X148840000Y-103200000D02*
X148820000Y-103200000D01*
X148420000Y-103200000D02*
X147320000Y-103200000D01*
X146920000Y-103200000D02*
X146900000Y-103200000D01*
X146500000Y-103200000D02*
X146480000Y-103200000D01*
X146080000Y-103200000D02*
X144980000Y-103200000D01*
X144580000Y-103200000D02*
X144560000Y-103200000D01*
X144160000Y-103200000D02*
X144140000Y-103200000D01*
X143740000Y-103200000D02*
X142640000Y-103200000D01*
X142240000Y-103200000D02*
X142220000Y-103200000D01*
X141820000Y-103200000D02*
X141800000Y-103200000D01*
X141400000Y-103200000D02*
X140300000Y-103200000D01*
X139900000Y-103200000D02*
X139880000Y-103200000D01*
X139480000Y-103200000D02*
X139460000Y-103200000D01*
X139060000Y-103200000D02*
X137960000Y-103200000D01*
X137560000Y-103200000D02*
X137540000Y-103200000D01*
X137140000Y-103200000D02*
X137120000Y-103200000D01*
X136720000Y-103200000D02*
X135620000Y-103200000D01*
X135220000Y-103200000D02*
X135200000Y-103200000D01*
X134800000Y-103200000D02*
X134780000Y-103200000D01*
X134380000Y-103200000D02*
X133280000Y-103200000D01*
X132880000Y-103200000D02*
X132860000Y-103200000D01*
X132800000Y-103200000D02*
X132800000Y-102100000D01*
X132800000Y-101700000D02*
X132800000Y-101680000D01*
X132800000Y-101280000D02*
X132800000Y-101260000D01*
X132800000Y-100860000D02*
X132800000Y-99760000D01*
X132800000Y-99360000D02*
X132800000Y-99340000D01*
X132800000Y-98940000D02*
X132800000Y-98920000D01*
X132800000Y-98520000D02*
X132800000Y-97420000D01*
X132800000Y-97020000D02*
X132800000Y-97000000D01*
X132800000Y-96600000D02*
X132800000Y-96580000D01*
X132800000Y-96180000D02*
X132800000Y-95080000D01*
X132800000Y-94680000D02*
X132800000Y-94660000D01*
X132800000Y-94260000D02*
X132800000Y-94240000D01*
X132800000Y-93840000D02*
X132800000Y-92740000D01*
X132800000Y-92340000D02*
X132800000Y-92320000D01*
X132800000Y-91920000D02*
X132800000Y-91900000D01*
X132800000Y-91500000D02*
X132800000Y-90400000D01*
X132800000Y-90000000D02*
X132800000Y-89980000D01*
X132800000Y-89580000D02*
X132800000Y-89560000D01*
X132800000Y-89160000D02*
X132800000Y-88060000D01*
X132800000Y-87660000D02*
X132800000Y-87640000D01*
X132800000Y-87240000D02*
X132800000Y-87220000D01*
X132800000Y-86820000D02*
X132800000Y-85720000D01*
X132800000Y-85320000D02*
X132800000Y-85300000D01*
X132800000Y-84900000D02*
X132800000Y-84880000D01*
X132800000Y-84480000D02*
X132800000Y-83380000D01*
X132800000Y-82980000D02*
X132800000Y-82960000D01*
X132800000Y-82560000D02*
X132800000Y-82540000D01*
X132800000Y-82140000D02*
X132800000Y-81040000D01*
X132800000Y-80640000D02*
X132800000Y-80620000D01*
X132800000Y-80220000D02*
X132800000Y-80200000D01*
X132800000Y-79800000D02*
X132800000Y-78700000D01*
X132800000Y-78300000D02*
X132800000Y-78280000D01*
X132800000Y-77880000D02*
X132800000Y-77860000D01*
X132800000Y-77460000D02*
X132800000Y-76360000D01*
X132800000Y-75960000D02*
X132800000Y-75940000D01*
X132800000Y-75540000D02*
X132800000Y-75520000D01*
X132800000Y-75120000D02*
X132800000Y-74020000D01*
X132800000Y-73620000D02*
X132800000Y-73600000D01*
X132800000Y-73200000D02*
X132800000Y-73180000D01*
X132800000Y-72780000D02*
X132800000Y-71680000D01*
X132800000Y-71280000D02*
X132800000Y-71260000D01*
X128550000Y-66950000D02*
X169050000Y-66950000D01*
X169050000Y-107450000D01*
X128550000Y-107450000D01*
X128550000Y-66950000D01*
X172216747Y-100080953D02*
X172216747Y-100319048D01*
X172073890Y-100033334D02*
X172573890Y-100200000D01*
X172573890Y-100200000D02*
X172073890Y-100366667D01*
X172121509Y-100819047D02*
X172097700Y-100795238D01*
X172097700Y-100795238D02*
X172073890Y-100723809D01*
X172073890Y-100723809D02*
X172073890Y-100676190D01*
X172073890Y-100676190D02*
X172097700Y-100604762D01*
X172097700Y-100604762D02*
X172145319Y-100557143D01*
X172145319Y-100557143D02*
X172192938Y-100533333D01*
X172192938Y-100533333D02*
X172288176Y-100509524D01*
X172288176Y-100509524D02*
X172359604Y-100509524D01*
X172359604Y-100509524D02*
X172454842Y-100533333D01*
X172454842Y-100533333D02*
X172502461Y-100557143D01*
X172502461Y-100557143D02*
X172550080Y-100604762D01*
X172550080Y-100604762D02*
X172573890Y-100676190D01*
X172573890Y-100676190D02*
X172573890Y-100723809D01*
X172573890Y-100723809D02*
X172550080Y-100795238D01*
X172550080Y-100795238D02*
X172526271Y-100819047D01*
X172121509Y-101319047D02*
X172097700Y-101295238D01*
X172097700Y-101295238D02*
X172073890Y-101223809D01*
X172073890Y-101223809D02*
X172073890Y-101176190D01*
X172073890Y-101176190D02*
X172097700Y-101104762D01*
X172097700Y-101104762D02*
X172145319Y-101057143D01*
X172145319Y-101057143D02*
X172192938Y-101033333D01*
X172192938Y-101033333D02*
X172288176Y-101009524D01*
X172288176Y-101009524D02*
X172359604Y-101009524D01*
X172359604Y-101009524D02*
X172454842Y-101033333D01*
X172454842Y-101033333D02*
X172502461Y-101057143D01*
X172502461Y-101057143D02*
X172550080Y-101104762D01*
X172550080Y-101104762D02*
X172573890Y-101176190D01*
X172573890Y-101176190D02*
X172573890Y-101223809D01*
X172573890Y-101223809D02*
X172550080Y-101295238D01*
X172550080Y-101295238D02*
X172526271Y-101319047D01*
X172573890Y-105604762D02*
X172573890Y-105366667D01*
X172573890Y-105366667D02*
X172335795Y-105342858D01*
X172335795Y-105342858D02*
X172359604Y-105366667D01*
X172359604Y-105366667D02*
X172383414Y-105414286D01*
X172383414Y-105414286D02*
X172383414Y-105533334D01*
X172383414Y-105533334D02*
X172359604Y-105580953D01*
X172359604Y-105580953D02*
X172335795Y-105604762D01*
X172335795Y-105604762D02*
X172288176Y-105628572D01*
X172288176Y-105628572D02*
X172169128Y-105628572D01*
X172169128Y-105628572D02*
X172121509Y-105604762D01*
X172121509Y-105604762D02*
X172097700Y-105580953D01*
X172097700Y-105580953D02*
X172073890Y-105533334D01*
X172073890Y-105533334D02*
X172073890Y-105414286D01*
X172073890Y-105414286D02*
X172097700Y-105366667D01*
X172097700Y-105366667D02*
X172121509Y-105342858D01*
X172573890Y-105771429D02*
X172073890Y-105938095D01*
X172073890Y-105938095D02*
X172573890Y-106104762D01*
X147609524Y-105957419D02*
X148180952Y-105957419D01*
X147895238Y-106957419D02*
X147895238Y-105957419D01*
X148657143Y-106957419D02*
X148561905Y-106909800D01*
X148561905Y-106909800D02*
X148514286Y-106862180D01*
X148514286Y-106862180D02*
X148466667Y-106766942D01*
X148466667Y-106766942D02*
X148466667Y-106481228D01*
X148466667Y-106481228D02*
X148514286Y-106385990D01*
X148514286Y-106385990D02*
X148561905Y-106338371D01*
X148561905Y-106338371D02*
X148657143Y-106290752D01*
X148657143Y-106290752D02*
X148800000Y-106290752D01*
X148800000Y-106290752D02*
X148895238Y-106338371D01*
X148895238Y-106338371D02*
X148942857Y-106385990D01*
X148942857Y-106385990D02*
X148990476Y-106481228D01*
X148990476Y-106481228D02*
X148990476Y-106766942D01*
X148990476Y-106766942D02*
X148942857Y-106862180D01*
X148942857Y-106862180D02*
X148895238Y-106909800D01*
X148895238Y-106909800D02*
X148800000Y-106957419D01*
X148800000Y-106957419D02*
X148657143Y-106957419D01*
X149419048Y-106290752D02*
X149419048Y-107290752D01*
X149419048Y-106338371D02*
X149514286Y-106290752D01*
X149514286Y-106290752D02*
X149704762Y-106290752D01*
X149704762Y-106290752D02*
X149800000Y-106338371D01*
X149800000Y-106338371D02*
X149847619Y-106385990D01*
X149847619Y-106385990D02*
X149895238Y-106481228D01*
X149895238Y-106481228D02*
X149895238Y-106766942D01*
X149895238Y-106766942D02*
X149847619Y-106862180D01*
X149847619Y-106862180D02*
X149800000Y-106909800D01*
X149800000Y-106909800D02*
X149704762Y-106957419D01*
X149704762Y-106957419D02*
X149514286Y-106957419D01*
X149514286Y-106957419D02*
X149419048Y-106909800D01*
X171779315Y-83433984D02*
X171826934Y-83338746D01*
X171826934Y-83338746D02*
X171826934Y-83195889D01*
X171826934Y-83195889D02*
X171779315Y-83053032D01*
X171779315Y-83053032D02*
X171684077Y-82957794D01*
X171684077Y-82957794D02*
X171588839Y-82910175D01*
X171588839Y-82910175D02*
X171398363Y-82862556D01*
X171398363Y-82862556D02*
X171255506Y-82862556D01*
X171255506Y-82862556D02*
X171065030Y-82910175D01*
X171065030Y-82910175D02*
X170969792Y-82957794D01*
X170969792Y-82957794D02*
X170874554Y-83053032D01*
X170874554Y-83053032D02*
X170826934Y-83195889D01*
X170826934Y-83195889D02*
X170826934Y-83291127D01*
X170826934Y-83291127D02*
X170874554Y-83433984D01*
X170874554Y-83433984D02*
X170922173Y-83481603D01*
X170922173Y-83481603D02*
X171255506Y-83481603D01*
X171255506Y-83481603D02*
X171255506Y-83291127D01*
X170826934Y-83910175D02*
X171826934Y-83910175D01*
X171826934Y-83910175D02*
X170826934Y-84481603D01*
X170826934Y-84481603D02*
X171826934Y-84481603D01*
X170826934Y-84957794D02*
X171826934Y-84957794D01*
X171826934Y-84957794D02*
X171826934Y-85195889D01*
X171826934Y-85195889D02*
X171779315Y-85338746D01*
X171779315Y-85338746D02*
X171684077Y-85433984D01*
X171684077Y-85433984D02*
X171588839Y-85481603D01*
X171588839Y-85481603D02*
X171398363Y-85529222D01*
X171398363Y-85529222D02*
X171255506Y-85529222D01*
X171255506Y-85529222D02*
X171065030Y-85481603D01*
X171065030Y-85481603D02*
X170969792Y-85433984D01*
X170969792Y-85433984D02*
X170874554Y-85338746D01*
X170874554Y-85338746D02*
X170826934Y-85195889D01*
X170826934Y-85195889D02*
X170826934Y-84957794D01*
X171842580Y-69509523D02*
X171842580Y-69033333D01*
X171842580Y-69033333D02*
X171366390Y-68985714D01*
X171366390Y-68985714D02*
X171414009Y-69033333D01*
X171414009Y-69033333D02*
X171461628Y-69128571D01*
X171461628Y-69128571D02*
X171461628Y-69366666D01*
X171461628Y-69366666D02*
X171414009Y-69461904D01*
X171414009Y-69461904D02*
X171366390Y-69509523D01*
X171366390Y-69509523D02*
X171271152Y-69557142D01*
X171271152Y-69557142D02*
X171033057Y-69557142D01*
X171033057Y-69557142D02*
X170937819Y-69509523D01*
X170937819Y-69509523D02*
X170890200Y-69461904D01*
X170890200Y-69461904D02*
X170842580Y-69366666D01*
X170842580Y-69366666D02*
X170842580Y-69128571D01*
X170842580Y-69128571D02*
X170890200Y-69033333D01*
X170890200Y-69033333D02*
X170937819Y-68985714D01*
X171842580Y-69842857D02*
X170842580Y-70176190D01*
X170842580Y-70176190D02*
X171842580Y-70509523D01*
X171128295Y-72866666D02*
X171128295Y-73342856D01*
X170842580Y-72771428D02*
X171842580Y-73104761D01*
X171842580Y-73104761D02*
X170842580Y-73438094D01*
X171509247Y-73771428D02*
X170842580Y-73771428D01*
X171414009Y-73771428D02*
X171461628Y-73819047D01*
X171461628Y-73819047D02*
X171509247Y-73914285D01*
X171509247Y-73914285D02*
X171509247Y-74057142D01*
X171509247Y-74057142D02*
X171461628Y-74152380D01*
X171461628Y-74152380D02*
X171366390Y-74199999D01*
X171366390Y-74199999D02*
X170842580Y-74199999D01*
X171509247Y-75104761D02*
X170699723Y-75104761D01*
X170699723Y-75104761D02*
X170604485Y-75057142D01*
X170604485Y-75057142D02*
X170556866Y-75009523D01*
X170556866Y-75009523D02*
X170509247Y-74914285D01*
X170509247Y-74914285D02*
X170509247Y-74771428D01*
X170509247Y-74771428D02*
X170556866Y-74676190D01*
X170890200Y-75104761D02*
X170842580Y-75009523D01*
X170842580Y-75009523D02*
X170842580Y-74819047D01*
X170842580Y-74819047D02*
X170890200Y-74723809D01*
X170890200Y-74723809D02*
X170937819Y-74676190D01*
X170937819Y-74676190D02*
X171033057Y-74628571D01*
X171033057Y-74628571D02*
X171318771Y-74628571D01*
X171318771Y-74628571D02*
X171414009Y-74676190D01*
X171414009Y-74676190D02*
X171461628Y-74723809D01*
X171461628Y-74723809D02*
X171509247Y-74819047D01*
X171509247Y-74819047D02*
X171509247Y-75009523D01*
X171509247Y-75009523D02*
X171461628Y-75104761D01*
X170842580Y-75723809D02*
X170890200Y-75628571D01*
X170890200Y-75628571D02*
X170985438Y-75580952D01*
X170985438Y-75580952D02*
X171842580Y-75580952D01*
X170890200Y-76485714D02*
X170842580Y-76390476D01*
X170842580Y-76390476D02*
X170842580Y-76200000D01*
X170842580Y-76200000D02*
X170890200Y-76104762D01*
X170890200Y-76104762D02*
X170985438Y-76057143D01*
X170985438Y-76057143D02*
X171366390Y-76057143D01*
X171366390Y-76057143D02*
X171461628Y-76104762D01*
X171461628Y-76104762D02*
X171509247Y-76200000D01*
X171509247Y-76200000D02*
X171509247Y-76390476D01*
X171509247Y-76390476D02*
X171461628Y-76485714D01*
X171461628Y-76485714D02*
X171366390Y-76533333D01*
X171366390Y-76533333D02*
X171271152Y-76533333D01*
X171271152Y-76533333D02*
X171175914Y-76057143D01*
X171128295Y-77961905D02*
X171128295Y-78438095D01*
X170842580Y-77866667D02*
X171842580Y-78200000D01*
X171842580Y-78200000D02*
X170842580Y-78533333D01*
X170937819Y-79438095D02*
X170890200Y-79390476D01*
X170890200Y-79390476D02*
X170842580Y-79247619D01*
X170842580Y-79247619D02*
X170842580Y-79152381D01*
X170842580Y-79152381D02*
X170890200Y-79009524D01*
X170890200Y-79009524D02*
X170985438Y-78914286D01*
X170985438Y-78914286D02*
X171080676Y-78866667D01*
X171080676Y-78866667D02*
X171271152Y-78819048D01*
X171271152Y-78819048D02*
X171414009Y-78819048D01*
X171414009Y-78819048D02*
X171604485Y-78866667D01*
X171604485Y-78866667D02*
X171699723Y-78914286D01*
X171699723Y-78914286D02*
X171794961Y-79009524D01*
X171794961Y-79009524D02*
X171842580Y-79152381D01*
X171842580Y-79152381D02*
X171842580Y-79247619D01*
X171842580Y-79247619D02*
X171794961Y-79390476D01*
X171794961Y-79390476D02*
X171747342Y-79438095D01*
X170937819Y-80438095D02*
X170890200Y-80390476D01*
X170890200Y-80390476D02*
X170842580Y-80247619D01*
X170842580Y-80247619D02*
X170842580Y-80152381D01*
X170842580Y-80152381D02*
X170890200Y-80009524D01*
X170890200Y-80009524D02*
X170985438Y-79914286D01*
X170985438Y-79914286D02*
X171080676Y-79866667D01*
X171080676Y-79866667D02*
X171271152Y-79819048D01*
X171271152Y-79819048D02*
X171414009Y-79819048D01*
X171414009Y-79819048D02*
X171604485Y-79866667D01*
X171604485Y-79866667D02*
X171699723Y-79914286D01*
X171699723Y-79914286D02*
X171794961Y-80009524D01*
X171794961Y-80009524D02*
X171842580Y-80152381D01*
X171842580Y-80152381D02*
X171842580Y-80247619D01*
X171842580Y-80247619D02*
X171794961Y-80390476D01*
X171794961Y-80390476D02*
X171747342Y-80438095D01*
X171366390Y-102366666D02*
X171366390Y-102033333D01*
X170842580Y-102033333D02*
X171842580Y-102033333D01*
X171842580Y-102033333D02*
X171842580Y-102509523D01*
X170842580Y-102890476D02*
X171509247Y-102890476D01*
X171842580Y-102890476D02*
X171794961Y-102842857D01*
X171794961Y-102842857D02*
X171747342Y-102890476D01*
X171747342Y-102890476D02*
X171794961Y-102938095D01*
X171794961Y-102938095D02*
X171842580Y-102890476D01*
X171842580Y-102890476D02*
X171747342Y-102890476D01*
X170842580Y-103366666D02*
X171509247Y-103366666D01*
X171318771Y-103366666D02*
X171414009Y-103414285D01*
X171414009Y-103414285D02*
X171461628Y-103461904D01*
X171461628Y-103461904D02*
X171509247Y-103557142D01*
X171509247Y-103557142D02*
X171509247Y-103652380D01*
X170890200Y-104366666D02*
X170842580Y-104271428D01*
X170842580Y-104271428D02*
X170842580Y-104080952D01*
X170842580Y-104080952D02*
X170890200Y-103985714D01*
X170890200Y-103985714D02*
X170985438Y-103938095D01*
X170985438Y-103938095D02*
X171366390Y-103938095D01*
X171366390Y-103938095D02*
X171461628Y-103985714D01*
X171461628Y-103985714D02*
X171509247Y-104080952D01*
X171509247Y-104080952D02*
X171509247Y-104271428D01*
X171509247Y-104271428D02*
X171461628Y-104366666D01*
X171461628Y-104366666D02*
X171366390Y-104414285D01*
X171366390Y-104414285D02*
X171271152Y-104414285D01*
X171271152Y-104414285D02*
X171175914Y-103938095D01*
%TO.C,RV2*%
D11*
X140690000Y-109590000D02*
X156910000Y-109590000D01*
X140690000Y-117810000D02*
X140690000Y-109590000D01*
X143690000Y-100590000D02*
X153910000Y-100590000D01*
X143690000Y-109590000D02*
X143690000Y-100590000D01*
X145690000Y-84590000D02*
X151910000Y-84590000D01*
X145690000Y-100590000D02*
X145690000Y-84590000D01*
X151910000Y-84590000D02*
X151910000Y-100590000D01*
X151910000Y-100590000D02*
X145690000Y-100590000D01*
X153910000Y-100590000D02*
X153910000Y-109590000D01*
X153910000Y-109590000D02*
X143690000Y-109590000D01*
X156910000Y-109590000D02*
X156910000Y-117810000D01*
X156910000Y-117810000D02*
X140690000Y-117810000D01*
%TO.C,RV1*%
X118190000Y-79090000D02*
X126410000Y-79090000D01*
X118190000Y-95310000D02*
X118190000Y-79090000D01*
X126410000Y-79090000D02*
X126410000Y-95310000D01*
X126410000Y-82090000D02*
X135410000Y-82090000D01*
X126410000Y-92310000D02*
X126410000Y-82090000D01*
X126410000Y-95310000D02*
X118190000Y-95310000D01*
X135410000Y-82090000D02*
X135410000Y-92310000D01*
X135410000Y-84090000D02*
X151410000Y-84090000D01*
X135410000Y-90310000D02*
X135410000Y-84090000D01*
X135410000Y-92310000D02*
X126410000Y-92310000D01*
X151410000Y-84090000D02*
X151410000Y-90310000D01*
X151410000Y-90310000D02*
X135410000Y-90310000D01*
%TD*%
M02*
