%TF.GenerationSoftware,KiCad,Pcbnew,10.0.0*%
%TF.CreationDate,2026-04-27T10:41:34+12:00*%
%TF.ProjectId,controller,636f6e74-726f-46c6-9c65-722e6b696361,1.0.0*%
%TF.SameCoordinates,Original*%
%TF.FileFunction,Legend,Bot*%
%TF.FilePolarity,Positive*%
%FSLAX46Y46*%
G04 Gerber Fmt 4.6, Leading zero omitted, Abs format (unit mm)*
G04 Created by KiCad (PCBNEW 10.0.0) date 2026-04-27 10:41:34*
%MOMM*%
%LPD*%
G01*
G04 APERTURE LIST*
%ADD10C,0.100000*%
%ADD11C,0.150000*%
%ADD12C,0.120000*%
G04 APERTURE END LIST*
D10*
X128550000Y-66950000D02*
X169050000Y-66950000D01*
X169050000Y-107450000D01*
X128550000Y-107450000D01*
X128550000Y-66950000D01*
X137495143Y-64882342D02*
X137495143Y-64882342D01*
G75*
G02*
X138495143Y-63882342I999957J42D01*
G01*
X146300000Y-63882342D01*
G75*
G02*
X147300000Y-64882342I0J-999958D01*
G01*
X147300000Y-65517659D01*
G75*
G02*
X146300000Y-66517659I-1000000J-41D01*
G01*
X138495143Y-66517659D01*
G75*
G02*
X137495143Y-65517659I-43J999959D01*
G01*
X137495143Y-64882342D01*
X149799584Y-64879138D02*
X149799584Y-64879138D01*
G75*
G02*
X150799584Y-63879138I1000016J38D01*
G01*
X158604441Y-63879138D01*
G75*
G02*
X159604441Y-64879138I-41J-999962D01*
G01*
X159604441Y-65514455D01*
G75*
G02*
X158604441Y-66514455I-1000041J-45D01*
G01*
X150799584Y-66514455D01*
G75*
G02*
X149799584Y-65514455I16J999955D01*
G01*
X149799584Y-64879138D01*
X172383252Y-100080953D02*
X172383252Y-100319048D01*
X172526109Y-100033334D02*
X172026109Y-100200000D01*
X172026109Y-100200000D02*
X172526109Y-100366667D01*
X172478490Y-100819047D02*
X172502300Y-100795238D01*
X172502300Y-100795238D02*
X172526109Y-100723809D01*
X172526109Y-100723809D02*
X172526109Y-100676190D01*
X172526109Y-100676190D02*
X172502300Y-100604762D01*
X172502300Y-100604762D02*
X172454680Y-100557143D01*
X172454680Y-100557143D02*
X172407061Y-100533333D01*
X172407061Y-100533333D02*
X172311823Y-100509524D01*
X172311823Y-100509524D02*
X172240395Y-100509524D01*
X172240395Y-100509524D02*
X172145157Y-100533333D01*
X172145157Y-100533333D02*
X172097538Y-100557143D01*
X172097538Y-100557143D02*
X172049919Y-100604762D01*
X172049919Y-100604762D02*
X172026109Y-100676190D01*
X172026109Y-100676190D02*
X172026109Y-100723809D01*
X172026109Y-100723809D02*
X172049919Y-100795238D01*
X172049919Y-100795238D02*
X172073728Y-100819047D01*
X172478490Y-101319047D02*
X172502300Y-101295238D01*
X172502300Y-101295238D02*
X172526109Y-101223809D01*
X172526109Y-101223809D02*
X172526109Y-101176190D01*
X172526109Y-101176190D02*
X172502300Y-101104762D01*
X172502300Y-101104762D02*
X172454680Y-101057143D01*
X172454680Y-101057143D02*
X172407061Y-101033333D01*
X172407061Y-101033333D02*
X172311823Y-101009524D01*
X172311823Y-101009524D02*
X172240395Y-101009524D01*
X172240395Y-101009524D02*
X172145157Y-101033333D01*
X172145157Y-101033333D02*
X172097538Y-101057143D01*
X172097538Y-101057143D02*
X172049919Y-101104762D01*
X172049919Y-101104762D02*
X172026109Y-101176190D01*
X172026109Y-101176190D02*
X172026109Y-101223809D01*
X172026109Y-101223809D02*
X172049919Y-101295238D01*
X172049919Y-101295238D02*
X172073728Y-101319047D01*
X172026109Y-105604762D02*
X172026109Y-105366667D01*
X172026109Y-105366667D02*
X172264204Y-105342858D01*
X172264204Y-105342858D02*
X172240395Y-105366667D01*
X172240395Y-105366667D02*
X172216585Y-105414286D01*
X172216585Y-105414286D02*
X172216585Y-105533334D01*
X172216585Y-105533334D02*
X172240395Y-105580953D01*
X172240395Y-105580953D02*
X172264204Y-105604762D01*
X172264204Y-105604762D02*
X172311823Y-105628572D01*
X172311823Y-105628572D02*
X172430871Y-105628572D01*
X172430871Y-105628572D02*
X172478490Y-105604762D01*
X172478490Y-105604762D02*
X172502300Y-105580953D01*
X172502300Y-105580953D02*
X172526109Y-105533334D01*
X172526109Y-105533334D02*
X172526109Y-105414286D01*
X172526109Y-105414286D02*
X172502300Y-105366667D01*
X172502300Y-105366667D02*
X172478490Y-105342858D01*
X172026109Y-105771429D02*
X172526109Y-105938095D01*
X172526109Y-105938095D02*
X172026109Y-106104762D01*
X170757419Y-69509523D02*
X170757419Y-69033333D01*
X170757419Y-69033333D02*
X171233609Y-68985714D01*
X171233609Y-68985714D02*
X171185990Y-69033333D01*
X171185990Y-69033333D02*
X171138371Y-69128571D01*
X171138371Y-69128571D02*
X171138371Y-69366666D01*
X171138371Y-69366666D02*
X171185990Y-69461904D01*
X171185990Y-69461904D02*
X171233609Y-69509523D01*
X171233609Y-69509523D02*
X171328847Y-69557142D01*
X171328847Y-69557142D02*
X171566942Y-69557142D01*
X171566942Y-69557142D02*
X171662180Y-69509523D01*
X171662180Y-69509523D02*
X171709800Y-69461904D01*
X171709800Y-69461904D02*
X171757419Y-69366666D01*
X171757419Y-69366666D02*
X171757419Y-69128571D01*
X171757419Y-69128571D02*
X171709800Y-69033333D01*
X171709800Y-69033333D02*
X171662180Y-68985714D01*
X170757419Y-69842857D02*
X171757419Y-70176190D01*
X171757419Y-70176190D02*
X170757419Y-70509523D01*
X171471704Y-72866666D02*
X171471704Y-73342856D01*
X171757419Y-72771428D02*
X170757419Y-73104761D01*
X170757419Y-73104761D02*
X171757419Y-73438094D01*
X171090752Y-73771428D02*
X171757419Y-73771428D01*
X171185990Y-73771428D02*
X171138371Y-73819047D01*
X171138371Y-73819047D02*
X171090752Y-73914285D01*
X171090752Y-73914285D02*
X171090752Y-74057142D01*
X171090752Y-74057142D02*
X171138371Y-74152380D01*
X171138371Y-74152380D02*
X171233609Y-74199999D01*
X171233609Y-74199999D02*
X171757419Y-74199999D01*
X171090752Y-75104761D02*
X171900276Y-75104761D01*
X171900276Y-75104761D02*
X171995514Y-75057142D01*
X171995514Y-75057142D02*
X172043133Y-75009523D01*
X172043133Y-75009523D02*
X172090752Y-74914285D01*
X172090752Y-74914285D02*
X172090752Y-74771428D01*
X172090752Y-74771428D02*
X172043133Y-74676190D01*
X171709800Y-75104761D02*
X171757419Y-75009523D01*
X171757419Y-75009523D02*
X171757419Y-74819047D01*
X171757419Y-74819047D02*
X171709800Y-74723809D01*
X171709800Y-74723809D02*
X171662180Y-74676190D01*
X171662180Y-74676190D02*
X171566942Y-74628571D01*
X171566942Y-74628571D02*
X171281228Y-74628571D01*
X171281228Y-74628571D02*
X171185990Y-74676190D01*
X171185990Y-74676190D02*
X171138371Y-74723809D01*
X171138371Y-74723809D02*
X171090752Y-74819047D01*
X171090752Y-74819047D02*
X171090752Y-75009523D01*
X171090752Y-75009523D02*
X171138371Y-75104761D01*
X171757419Y-75723809D02*
X171709800Y-75628571D01*
X171709800Y-75628571D02*
X171614561Y-75580952D01*
X171614561Y-75580952D02*
X170757419Y-75580952D01*
X171709800Y-76485714D02*
X171757419Y-76390476D01*
X171757419Y-76390476D02*
X171757419Y-76200000D01*
X171757419Y-76200000D02*
X171709800Y-76104762D01*
X171709800Y-76104762D02*
X171614561Y-76057143D01*
X171614561Y-76057143D02*
X171233609Y-76057143D01*
X171233609Y-76057143D02*
X171138371Y-76104762D01*
X171138371Y-76104762D02*
X171090752Y-76200000D01*
X171090752Y-76200000D02*
X171090752Y-76390476D01*
X171090752Y-76390476D02*
X171138371Y-76485714D01*
X171138371Y-76485714D02*
X171233609Y-76533333D01*
X171233609Y-76533333D02*
X171328847Y-76533333D01*
X171328847Y-76533333D02*
X171424085Y-76057143D01*
X171471704Y-77961905D02*
X171471704Y-78438095D01*
X171757419Y-77866667D02*
X170757419Y-78200000D01*
X170757419Y-78200000D02*
X171757419Y-78533333D01*
X171662180Y-79438095D02*
X171709800Y-79390476D01*
X171709800Y-79390476D02*
X171757419Y-79247619D01*
X171757419Y-79247619D02*
X171757419Y-79152381D01*
X171757419Y-79152381D02*
X171709800Y-79009524D01*
X171709800Y-79009524D02*
X171614561Y-78914286D01*
X171614561Y-78914286D02*
X171519323Y-78866667D01*
X171519323Y-78866667D02*
X171328847Y-78819048D01*
X171328847Y-78819048D02*
X171185990Y-78819048D01*
X171185990Y-78819048D02*
X170995514Y-78866667D01*
X170995514Y-78866667D02*
X170900276Y-78914286D01*
X170900276Y-78914286D02*
X170805038Y-79009524D01*
X170805038Y-79009524D02*
X170757419Y-79152381D01*
X170757419Y-79152381D02*
X170757419Y-79247619D01*
X170757419Y-79247619D02*
X170805038Y-79390476D01*
X170805038Y-79390476D02*
X170852657Y-79438095D01*
X171662180Y-80438095D02*
X171709800Y-80390476D01*
X171709800Y-80390476D02*
X171757419Y-80247619D01*
X171757419Y-80247619D02*
X171757419Y-80152381D01*
X171757419Y-80152381D02*
X171709800Y-80009524D01*
X171709800Y-80009524D02*
X171614561Y-79914286D01*
X171614561Y-79914286D02*
X171519323Y-79866667D01*
X171519323Y-79866667D02*
X171328847Y-79819048D01*
X171328847Y-79819048D02*
X171185990Y-79819048D01*
X171185990Y-79819048D02*
X170995514Y-79866667D01*
X170995514Y-79866667D02*
X170900276Y-79914286D01*
X170900276Y-79914286D02*
X170805038Y-80009524D01*
X170805038Y-80009524D02*
X170757419Y-80152381D01*
X170757419Y-80152381D02*
X170757419Y-80247619D01*
X170757419Y-80247619D02*
X170805038Y-80390476D01*
X170805038Y-80390476D02*
X170852657Y-80438095D01*
X170805038Y-83438095D02*
X170757419Y-83342857D01*
X170757419Y-83342857D02*
X170757419Y-83200000D01*
X170757419Y-83200000D02*
X170805038Y-83057143D01*
X170805038Y-83057143D02*
X170900276Y-82961905D01*
X170900276Y-82961905D02*
X170995514Y-82914286D01*
X170995514Y-82914286D02*
X171185990Y-82866667D01*
X171185990Y-82866667D02*
X171328847Y-82866667D01*
X171328847Y-82866667D02*
X171519323Y-82914286D01*
X171519323Y-82914286D02*
X171614561Y-82961905D01*
X171614561Y-82961905D02*
X171709800Y-83057143D01*
X171709800Y-83057143D02*
X171757419Y-83200000D01*
X171757419Y-83200000D02*
X171757419Y-83295238D01*
X171757419Y-83295238D02*
X171709800Y-83438095D01*
X171709800Y-83438095D02*
X171662180Y-83485714D01*
X171662180Y-83485714D02*
X171328847Y-83485714D01*
X171328847Y-83485714D02*
X171328847Y-83295238D01*
X171757419Y-83914286D02*
X170757419Y-83914286D01*
X170757419Y-83914286D02*
X171757419Y-84485714D01*
X171757419Y-84485714D02*
X170757419Y-84485714D01*
X171757419Y-84961905D02*
X170757419Y-84961905D01*
X170757419Y-84961905D02*
X170757419Y-85200000D01*
X170757419Y-85200000D02*
X170805038Y-85342857D01*
X170805038Y-85342857D02*
X170900276Y-85438095D01*
X170900276Y-85438095D02*
X170995514Y-85485714D01*
X170995514Y-85485714D02*
X171185990Y-85533333D01*
X171185990Y-85533333D02*
X171328847Y-85533333D01*
X171328847Y-85533333D02*
X171519323Y-85485714D01*
X171519323Y-85485714D02*
X171614561Y-85438095D01*
X171614561Y-85438095D02*
X171709800Y-85342857D01*
X171709800Y-85342857D02*
X171757419Y-85200000D01*
X171757419Y-85200000D02*
X171757419Y-84961905D01*
X171233609Y-102366666D02*
X171233609Y-102033333D01*
X171757419Y-102033333D02*
X170757419Y-102033333D01*
X170757419Y-102033333D02*
X170757419Y-102509523D01*
X171757419Y-102890476D02*
X171090752Y-102890476D01*
X170757419Y-102890476D02*
X170805038Y-102842857D01*
X170805038Y-102842857D02*
X170852657Y-102890476D01*
X170852657Y-102890476D02*
X170805038Y-102938095D01*
X170805038Y-102938095D02*
X170757419Y-102890476D01*
X170757419Y-102890476D02*
X170852657Y-102890476D01*
X171757419Y-103366666D02*
X171090752Y-103366666D01*
X171281228Y-103366666D02*
X171185990Y-103414285D01*
X171185990Y-103414285D02*
X171138371Y-103461904D01*
X171138371Y-103461904D02*
X171090752Y-103557142D01*
X171090752Y-103557142D02*
X171090752Y-103652380D01*
X171709800Y-104366666D02*
X171757419Y-104271428D01*
X171757419Y-104271428D02*
X171757419Y-104080952D01*
X171757419Y-104080952D02*
X171709800Y-103985714D01*
X171709800Y-103985714D02*
X171614561Y-103938095D01*
X171614561Y-103938095D02*
X171233609Y-103938095D01*
X171233609Y-103938095D02*
X171138371Y-103985714D01*
X171138371Y-103985714D02*
X171090752Y-104080952D01*
X171090752Y-104080952D02*
X171090752Y-104271428D01*
X171090752Y-104271428D02*
X171138371Y-104366666D01*
X171138371Y-104366666D02*
X171233609Y-104414285D01*
X171233609Y-104414285D02*
X171328847Y-104414285D01*
X171328847Y-104414285D02*
X171424085Y-103938095D01*
X147043734Y-68286704D02*
X146567544Y-68286704D01*
X147138972Y-68572419D02*
X146805639Y-67572419D01*
X146805639Y-67572419D02*
X146472306Y-68572419D01*
X145710401Y-68524800D02*
X145805639Y-68572419D01*
X145805639Y-68572419D02*
X145996115Y-68572419D01*
X145996115Y-68572419D02*
X146091353Y-68524800D01*
X146091353Y-68524800D02*
X146138972Y-68477180D01*
X146138972Y-68477180D02*
X146186591Y-68381942D01*
X146186591Y-68381942D02*
X146186591Y-68096228D01*
X146186591Y-68096228D02*
X146138972Y-68000990D01*
X146138972Y-68000990D02*
X146091353Y-67953371D01*
X146091353Y-67953371D02*
X145996115Y-67905752D01*
X145996115Y-67905752D02*
X145805639Y-67905752D01*
X145805639Y-67905752D02*
X145710401Y-67953371D01*
X144853258Y-68524800D02*
X144948496Y-68572419D01*
X144948496Y-68572419D02*
X145138972Y-68572419D01*
X145138972Y-68572419D02*
X145234210Y-68524800D01*
X145234210Y-68524800D02*
X145281829Y-68477180D01*
X145281829Y-68477180D02*
X145329448Y-68381942D01*
X145329448Y-68381942D02*
X145329448Y-68096228D01*
X145329448Y-68096228D02*
X145281829Y-68000990D01*
X145281829Y-68000990D02*
X145234210Y-67953371D01*
X145234210Y-67953371D02*
X145138972Y-67905752D01*
X145138972Y-67905752D02*
X144948496Y-67905752D01*
X144948496Y-67905752D02*
X144853258Y-67953371D01*
X144043734Y-68524800D02*
X144138972Y-68572419D01*
X144138972Y-68572419D02*
X144329448Y-68572419D01*
X144329448Y-68572419D02*
X144424686Y-68524800D01*
X144424686Y-68524800D02*
X144472305Y-68429561D01*
X144472305Y-68429561D02*
X144472305Y-68048609D01*
X144472305Y-68048609D02*
X144424686Y-67953371D01*
X144424686Y-67953371D02*
X144329448Y-67905752D01*
X144329448Y-67905752D02*
X144138972Y-67905752D01*
X144138972Y-67905752D02*
X144043734Y-67953371D01*
X144043734Y-67953371D02*
X143996115Y-68048609D01*
X143996115Y-68048609D02*
X143996115Y-68143847D01*
X143996115Y-68143847D02*
X144472305Y-68239085D01*
X143424686Y-68572419D02*
X143519924Y-68524800D01*
X143519924Y-68524800D02*
X143567543Y-68429561D01*
X143567543Y-68429561D02*
X143567543Y-67572419D01*
X142662781Y-68524800D02*
X142758019Y-68572419D01*
X142758019Y-68572419D02*
X142948495Y-68572419D01*
X142948495Y-68572419D02*
X143043733Y-68524800D01*
X143043733Y-68524800D02*
X143091352Y-68429561D01*
X143091352Y-68429561D02*
X143091352Y-68048609D01*
X143091352Y-68048609D02*
X143043733Y-67953371D01*
X143043733Y-67953371D02*
X142948495Y-67905752D01*
X142948495Y-67905752D02*
X142758019Y-67905752D01*
X142758019Y-67905752D02*
X142662781Y-67953371D01*
X142662781Y-67953371D02*
X142615162Y-68048609D01*
X142615162Y-68048609D02*
X142615162Y-68143847D01*
X142615162Y-68143847D02*
X143091352Y-68239085D01*
X142186590Y-68572419D02*
X142186590Y-67905752D01*
X142186590Y-68096228D02*
X142138971Y-68000990D01*
X142138971Y-68000990D02*
X142091352Y-67953371D01*
X142091352Y-67953371D02*
X141996114Y-67905752D01*
X141996114Y-67905752D02*
X141900876Y-67905752D01*
X141138971Y-68572419D02*
X141138971Y-68048609D01*
X141138971Y-68048609D02*
X141186590Y-67953371D01*
X141186590Y-67953371D02*
X141281828Y-67905752D01*
X141281828Y-67905752D02*
X141472304Y-67905752D01*
X141472304Y-67905752D02*
X141567542Y-67953371D01*
X141138971Y-68524800D02*
X141234209Y-68572419D01*
X141234209Y-68572419D02*
X141472304Y-68572419D01*
X141472304Y-68572419D02*
X141567542Y-68524800D01*
X141567542Y-68524800D02*
X141615161Y-68429561D01*
X141615161Y-68429561D02*
X141615161Y-68334323D01*
X141615161Y-68334323D02*
X141567542Y-68239085D01*
X141567542Y-68239085D02*
X141472304Y-68191466D01*
X141472304Y-68191466D02*
X141234209Y-68191466D01*
X141234209Y-68191466D02*
X141138971Y-68143847D01*
X140805637Y-67905752D02*
X140424685Y-67905752D01*
X140662780Y-67572419D02*
X140662780Y-68429561D01*
X140662780Y-68429561D02*
X140615161Y-68524800D01*
X140615161Y-68524800D02*
X140519923Y-68572419D01*
X140519923Y-68572419D02*
X140424685Y-68572419D01*
X140091351Y-68572419D02*
X140091351Y-67905752D01*
X140091351Y-67572419D02*
X140138970Y-67620038D01*
X140138970Y-67620038D02*
X140091351Y-67667657D01*
X140091351Y-67667657D02*
X140043732Y-67620038D01*
X140043732Y-67620038D02*
X140091351Y-67572419D01*
X140091351Y-67572419D02*
X140091351Y-67667657D01*
X139472304Y-68572419D02*
X139567542Y-68524800D01*
X139567542Y-68524800D02*
X139615161Y-68477180D01*
X139615161Y-68477180D02*
X139662780Y-68381942D01*
X139662780Y-68381942D02*
X139662780Y-68096228D01*
X139662780Y-68096228D02*
X139615161Y-68000990D01*
X139615161Y-68000990D02*
X139567542Y-67953371D01*
X139567542Y-67953371D02*
X139472304Y-67905752D01*
X139472304Y-67905752D02*
X139329447Y-67905752D01*
X139329447Y-67905752D02*
X139234209Y-67953371D01*
X139234209Y-67953371D02*
X139186590Y-68000990D01*
X139186590Y-68000990D02*
X139138971Y-68096228D01*
X139138971Y-68096228D02*
X139138971Y-68381942D01*
X139138971Y-68381942D02*
X139186590Y-68477180D01*
X139186590Y-68477180D02*
X139234209Y-68524800D01*
X139234209Y-68524800D02*
X139329447Y-68572419D01*
X139329447Y-68572419D02*
X139472304Y-68572419D01*
X138710399Y-67905752D02*
X138710399Y-68572419D01*
X138710399Y-68000990D02*
X138662780Y-67953371D01*
X138662780Y-67953371D02*
X138567542Y-67905752D01*
X138567542Y-67905752D02*
X138424685Y-67905752D01*
X138424685Y-67905752D02*
X138329447Y-67953371D01*
X138329447Y-67953371D02*
X138281828Y-68048609D01*
X138281828Y-68048609D02*
X138281828Y-68572419D01*
X156543734Y-68286704D02*
X156067544Y-68286704D01*
X156638972Y-68572419D02*
X156305639Y-67572419D01*
X156305639Y-67572419D02*
X155972306Y-68572419D01*
X155638972Y-67905752D02*
X155638972Y-68572419D01*
X155638972Y-68000990D02*
X155591353Y-67953371D01*
X155591353Y-67953371D02*
X155496115Y-67905752D01*
X155496115Y-67905752D02*
X155353258Y-67905752D01*
X155353258Y-67905752D02*
X155258020Y-67953371D01*
X155258020Y-67953371D02*
X155210401Y-68048609D01*
X155210401Y-68048609D02*
X155210401Y-68572419D01*
X154305639Y-67905752D02*
X154305639Y-68715276D01*
X154305639Y-68715276D02*
X154353258Y-68810514D01*
X154353258Y-68810514D02*
X154400877Y-68858133D01*
X154400877Y-68858133D02*
X154496115Y-68905752D01*
X154496115Y-68905752D02*
X154638972Y-68905752D01*
X154638972Y-68905752D02*
X154734210Y-68858133D01*
X154305639Y-68524800D02*
X154400877Y-68572419D01*
X154400877Y-68572419D02*
X154591353Y-68572419D01*
X154591353Y-68572419D02*
X154686591Y-68524800D01*
X154686591Y-68524800D02*
X154734210Y-68477180D01*
X154734210Y-68477180D02*
X154781829Y-68381942D01*
X154781829Y-68381942D02*
X154781829Y-68096228D01*
X154781829Y-68096228D02*
X154734210Y-68000990D01*
X154734210Y-68000990D02*
X154686591Y-67953371D01*
X154686591Y-67953371D02*
X154591353Y-67905752D01*
X154591353Y-67905752D02*
X154400877Y-67905752D01*
X154400877Y-67905752D02*
X154305639Y-67953371D01*
X153686591Y-68572419D02*
X153781829Y-68524800D01*
X153781829Y-68524800D02*
X153829448Y-68429561D01*
X153829448Y-68429561D02*
X153829448Y-67572419D01*
X152924686Y-68524800D02*
X153019924Y-68572419D01*
X153019924Y-68572419D02*
X153210400Y-68572419D01*
X153210400Y-68572419D02*
X153305638Y-68524800D01*
X153305638Y-68524800D02*
X153353257Y-68429561D01*
X153353257Y-68429561D02*
X153353257Y-68048609D01*
X153353257Y-68048609D02*
X153305638Y-67953371D01*
X153305638Y-67953371D02*
X153210400Y-67905752D01*
X153210400Y-67905752D02*
X153019924Y-67905752D01*
X153019924Y-67905752D02*
X152924686Y-67953371D01*
X152924686Y-67953371D02*
X152877067Y-68048609D01*
X152877067Y-68048609D02*
X152877067Y-68143847D01*
X152877067Y-68143847D02*
X153353257Y-68239085D01*
X158424687Y-71367236D02*
X158472306Y-71414856D01*
X158472306Y-71414856D02*
X158615163Y-71462475D01*
X158615163Y-71462475D02*
X158710401Y-71462475D01*
X158710401Y-71462475D02*
X158853258Y-71414856D01*
X158853258Y-71414856D02*
X158948496Y-71319617D01*
X158948496Y-71319617D02*
X158996115Y-71224379D01*
X158996115Y-71224379D02*
X159043734Y-71033903D01*
X159043734Y-71033903D02*
X159043734Y-70891046D01*
X159043734Y-70891046D02*
X158996115Y-70700570D01*
X158996115Y-70700570D02*
X158948496Y-70605332D01*
X158948496Y-70605332D02*
X158853258Y-70510094D01*
X158853258Y-70510094D02*
X158710401Y-70462475D01*
X158710401Y-70462475D02*
X158615163Y-70462475D01*
X158615163Y-70462475D02*
X158472306Y-70510094D01*
X158472306Y-70510094D02*
X158424687Y-70557713D01*
X157567544Y-70795808D02*
X157567544Y-71462475D01*
X157996115Y-70795808D02*
X157996115Y-71319617D01*
X157996115Y-71319617D02*
X157948496Y-71414856D01*
X157948496Y-71414856D02*
X157853258Y-71462475D01*
X157853258Y-71462475D02*
X157710401Y-71462475D01*
X157710401Y-71462475D02*
X157615163Y-71414856D01*
X157615163Y-71414856D02*
X157567544Y-71367236D01*
X157234210Y-70795808D02*
X156853258Y-70795808D01*
X157091353Y-70462475D02*
X157091353Y-71319617D01*
X157091353Y-71319617D02*
X157043734Y-71414856D01*
X157043734Y-71414856D02*
X156948496Y-71462475D01*
X156948496Y-71462475D02*
X156853258Y-71462475D01*
X155900876Y-70795808D02*
X155519924Y-70795808D01*
X155758019Y-70462475D02*
X155758019Y-71319617D01*
X155758019Y-71319617D02*
X155710400Y-71414856D01*
X155710400Y-71414856D02*
X155615162Y-71462475D01*
X155615162Y-71462475D02*
X155519924Y-71462475D01*
X155186590Y-71462475D02*
X155186590Y-70795808D01*
X155186590Y-70986284D02*
X155138971Y-70891046D01*
X155138971Y-70891046D02*
X155091352Y-70843427D01*
X155091352Y-70843427D02*
X154996114Y-70795808D01*
X154996114Y-70795808D02*
X154900876Y-70795808D01*
X154186590Y-71414856D02*
X154281828Y-71462475D01*
X154281828Y-71462475D02*
X154472304Y-71462475D01*
X154472304Y-71462475D02*
X154567542Y-71414856D01*
X154567542Y-71414856D02*
X154615161Y-71319617D01*
X154615161Y-71319617D02*
X154615161Y-70938665D01*
X154615161Y-70938665D02*
X154567542Y-70843427D01*
X154567542Y-70843427D02*
X154472304Y-70795808D01*
X154472304Y-70795808D02*
X154281828Y-70795808D01*
X154281828Y-70795808D02*
X154186590Y-70843427D01*
X154186590Y-70843427D02*
X154138971Y-70938665D01*
X154138971Y-70938665D02*
X154138971Y-71033903D01*
X154138971Y-71033903D02*
X154615161Y-71129141D01*
X153281828Y-71462475D02*
X153281828Y-70938665D01*
X153281828Y-70938665D02*
X153329447Y-70843427D01*
X153329447Y-70843427D02*
X153424685Y-70795808D01*
X153424685Y-70795808D02*
X153615161Y-70795808D01*
X153615161Y-70795808D02*
X153710399Y-70843427D01*
X153281828Y-71414856D02*
X153377066Y-71462475D01*
X153377066Y-71462475D02*
X153615161Y-71462475D01*
X153615161Y-71462475D02*
X153710399Y-71414856D01*
X153710399Y-71414856D02*
X153758018Y-71319617D01*
X153758018Y-71319617D02*
X153758018Y-71224379D01*
X153758018Y-71224379D02*
X153710399Y-71129141D01*
X153710399Y-71129141D02*
X153615161Y-71081522D01*
X153615161Y-71081522D02*
X153377066Y-71081522D01*
X153377066Y-71081522D02*
X153281828Y-71033903D01*
X152377066Y-71414856D02*
X152472304Y-71462475D01*
X152472304Y-71462475D02*
X152662780Y-71462475D01*
X152662780Y-71462475D02*
X152758018Y-71414856D01*
X152758018Y-71414856D02*
X152805637Y-71367236D01*
X152805637Y-71367236D02*
X152853256Y-71271998D01*
X152853256Y-71271998D02*
X152853256Y-70986284D01*
X152853256Y-70986284D02*
X152805637Y-70891046D01*
X152805637Y-70891046D02*
X152758018Y-70843427D01*
X152758018Y-70843427D02*
X152662780Y-70795808D01*
X152662780Y-70795808D02*
X152472304Y-70795808D01*
X152472304Y-70795808D02*
X152377066Y-70843427D01*
X151567542Y-71414856D02*
X151662780Y-71462475D01*
X151662780Y-71462475D02*
X151853256Y-71462475D01*
X151853256Y-71462475D02*
X151948494Y-71414856D01*
X151948494Y-71414856D02*
X151996113Y-71319617D01*
X151996113Y-71319617D02*
X151996113Y-70938665D01*
X151996113Y-70938665D02*
X151948494Y-70843427D01*
X151948494Y-70843427D02*
X151853256Y-70795808D01*
X151853256Y-70795808D02*
X151662780Y-70795808D01*
X151662780Y-70795808D02*
X151567542Y-70843427D01*
X151567542Y-70843427D02*
X151519923Y-70938665D01*
X151519923Y-70938665D02*
X151519923Y-71033903D01*
X151519923Y-71033903D02*
X151996113Y-71129141D01*
X149900875Y-71462475D02*
X149900875Y-70938665D01*
X149900875Y-70938665D02*
X149948494Y-70843427D01*
X149948494Y-70843427D02*
X150043732Y-70795808D01*
X150043732Y-70795808D02*
X150234208Y-70795808D01*
X150234208Y-70795808D02*
X150329446Y-70843427D01*
X149900875Y-71414856D02*
X149996113Y-71462475D01*
X149996113Y-71462475D02*
X150234208Y-71462475D01*
X150234208Y-71462475D02*
X150329446Y-71414856D01*
X150329446Y-71414856D02*
X150377065Y-71319617D01*
X150377065Y-71319617D02*
X150377065Y-71224379D01*
X150377065Y-71224379D02*
X150329446Y-71129141D01*
X150329446Y-71129141D02*
X150234208Y-71081522D01*
X150234208Y-71081522D02*
X149996113Y-71081522D01*
X149996113Y-71081522D02*
X149900875Y-71033903D01*
X149424684Y-70795808D02*
X149424684Y-71462475D01*
X149424684Y-70891046D02*
X149377065Y-70843427D01*
X149377065Y-70843427D02*
X149281827Y-70795808D01*
X149281827Y-70795808D02*
X149138970Y-70795808D01*
X149138970Y-70795808D02*
X149043732Y-70843427D01*
X149043732Y-70843427D02*
X148996113Y-70938665D01*
X148996113Y-70938665D02*
X148996113Y-71462475D01*
X148091351Y-71462475D02*
X148091351Y-70462475D01*
X148091351Y-71414856D02*
X148186589Y-71462475D01*
X148186589Y-71462475D02*
X148377065Y-71462475D01*
X148377065Y-71462475D02*
X148472303Y-71414856D01*
X148472303Y-71414856D02*
X148519922Y-71367236D01*
X148519922Y-71367236D02*
X148567541Y-71271998D01*
X148567541Y-71271998D02*
X148567541Y-70986284D01*
X148567541Y-70986284D02*
X148519922Y-70891046D01*
X148519922Y-70891046D02*
X148472303Y-70843427D01*
X148472303Y-70843427D02*
X148377065Y-70795808D01*
X148377065Y-70795808D02*
X148186589Y-70795808D01*
X148186589Y-70795808D02*
X148091351Y-70843427D01*
X146900874Y-71414856D02*
X146805636Y-71462475D01*
X146805636Y-71462475D02*
X146615160Y-71462475D01*
X146615160Y-71462475D02*
X146519922Y-71414856D01*
X146519922Y-71414856D02*
X146472303Y-71319617D01*
X146472303Y-71319617D02*
X146472303Y-71271998D01*
X146472303Y-71271998D02*
X146519922Y-71176760D01*
X146519922Y-71176760D02*
X146615160Y-71129141D01*
X146615160Y-71129141D02*
X146758017Y-71129141D01*
X146758017Y-71129141D02*
X146853255Y-71081522D01*
X146853255Y-71081522D02*
X146900874Y-70986284D01*
X146900874Y-70986284D02*
X146900874Y-70938665D01*
X146900874Y-70938665D02*
X146853255Y-70843427D01*
X146853255Y-70843427D02*
X146758017Y-70795808D01*
X146758017Y-70795808D02*
X146615160Y-70795808D01*
X146615160Y-70795808D02*
X146519922Y-70843427D01*
X145900874Y-71462475D02*
X145996112Y-71414856D01*
X145996112Y-71414856D02*
X146043731Y-71367236D01*
X146043731Y-71367236D02*
X146091350Y-71271998D01*
X146091350Y-71271998D02*
X146091350Y-70986284D01*
X146091350Y-70986284D02*
X146043731Y-70891046D01*
X146043731Y-70891046D02*
X145996112Y-70843427D01*
X145996112Y-70843427D02*
X145900874Y-70795808D01*
X145900874Y-70795808D02*
X145758017Y-70795808D01*
X145758017Y-70795808D02*
X145662779Y-70843427D01*
X145662779Y-70843427D02*
X145615160Y-70891046D01*
X145615160Y-70891046D02*
X145567541Y-70986284D01*
X145567541Y-70986284D02*
X145567541Y-71271998D01*
X145567541Y-71271998D02*
X145615160Y-71367236D01*
X145615160Y-71367236D02*
X145662779Y-71414856D01*
X145662779Y-71414856D02*
X145758017Y-71462475D01*
X145758017Y-71462475D02*
X145900874Y-71462475D01*
X144996112Y-71462475D02*
X145091350Y-71414856D01*
X145091350Y-71414856D02*
X145138969Y-71319617D01*
X145138969Y-71319617D02*
X145138969Y-70462475D01*
X144186588Y-71462475D02*
X144186588Y-70462475D01*
X144186588Y-71414856D02*
X144281826Y-71462475D01*
X144281826Y-71462475D02*
X144472302Y-71462475D01*
X144472302Y-71462475D02*
X144567540Y-71414856D01*
X144567540Y-71414856D02*
X144615159Y-71367236D01*
X144615159Y-71367236D02*
X144662778Y-71271998D01*
X144662778Y-71271998D02*
X144662778Y-70986284D01*
X144662778Y-70986284D02*
X144615159Y-70891046D01*
X144615159Y-70891046D02*
X144567540Y-70843427D01*
X144567540Y-70843427D02*
X144472302Y-70795808D01*
X144472302Y-70795808D02*
X144281826Y-70795808D01*
X144281826Y-70795808D02*
X144186588Y-70843427D01*
X143329445Y-71414856D02*
X143424683Y-71462475D01*
X143424683Y-71462475D02*
X143615159Y-71462475D01*
X143615159Y-71462475D02*
X143710397Y-71414856D01*
X143710397Y-71414856D02*
X143758016Y-71319617D01*
X143758016Y-71319617D02*
X143758016Y-70938665D01*
X143758016Y-70938665D02*
X143710397Y-70843427D01*
X143710397Y-70843427D02*
X143615159Y-70795808D01*
X143615159Y-70795808D02*
X143424683Y-70795808D01*
X143424683Y-70795808D02*
X143329445Y-70843427D01*
X143329445Y-70843427D02*
X143281826Y-70938665D01*
X143281826Y-70938665D02*
X143281826Y-71033903D01*
X143281826Y-71033903D02*
X143758016Y-71129141D01*
X142853254Y-71462475D02*
X142853254Y-70795808D01*
X142853254Y-70986284D02*
X142805635Y-70891046D01*
X142805635Y-70891046D02*
X142758016Y-70843427D01*
X142758016Y-70843427D02*
X142662778Y-70795808D01*
X142662778Y-70795808D02*
X142567540Y-70795808D01*
X141329444Y-71462475D02*
X141424682Y-71414856D01*
X141424682Y-71414856D02*
X141472301Y-71367236D01*
X141472301Y-71367236D02*
X141519920Y-71271998D01*
X141519920Y-71271998D02*
X141519920Y-70986284D01*
X141519920Y-70986284D02*
X141472301Y-70891046D01*
X141472301Y-70891046D02*
X141424682Y-70843427D01*
X141424682Y-70843427D02*
X141329444Y-70795808D01*
X141329444Y-70795808D02*
X141186587Y-70795808D01*
X141186587Y-70795808D02*
X141091349Y-70843427D01*
X141091349Y-70843427D02*
X141043730Y-70891046D01*
X141043730Y-70891046D02*
X140996111Y-70986284D01*
X140996111Y-70986284D02*
X140996111Y-71271998D01*
X140996111Y-71271998D02*
X141043730Y-71367236D01*
X141043730Y-71367236D02*
X141091349Y-71414856D01*
X141091349Y-71414856D02*
X141186587Y-71462475D01*
X141186587Y-71462475D02*
X141329444Y-71462475D01*
X140710396Y-70795808D02*
X140329444Y-70795808D01*
X140567539Y-70462475D02*
X140567539Y-71319617D01*
X140567539Y-71319617D02*
X140519920Y-71414856D01*
X140519920Y-71414856D02*
X140424682Y-71462475D01*
X140424682Y-71462475D02*
X140329444Y-71462475D01*
X139996110Y-71462475D02*
X139996110Y-70462475D01*
X139567539Y-71462475D02*
X139567539Y-70938665D01*
X139567539Y-70938665D02*
X139615158Y-70843427D01*
X139615158Y-70843427D02*
X139710396Y-70795808D01*
X139710396Y-70795808D02*
X139853253Y-70795808D01*
X139853253Y-70795808D02*
X139948491Y-70843427D01*
X139948491Y-70843427D02*
X139996110Y-70891046D01*
X138710396Y-71414856D02*
X138805634Y-71462475D01*
X138805634Y-71462475D02*
X138996110Y-71462475D01*
X138996110Y-71462475D02*
X139091348Y-71414856D01*
X139091348Y-71414856D02*
X139138967Y-71319617D01*
X139138967Y-71319617D02*
X139138967Y-70938665D01*
X139138967Y-70938665D02*
X139091348Y-70843427D01*
X139091348Y-70843427D02*
X138996110Y-70795808D01*
X138996110Y-70795808D02*
X138805634Y-70795808D01*
X138805634Y-70795808D02*
X138710396Y-70843427D01*
X138710396Y-70843427D02*
X138662777Y-70938665D01*
X138662777Y-70938665D02*
X138662777Y-71033903D01*
X138662777Y-71033903D02*
X139138967Y-71129141D01*
X138234205Y-71462475D02*
X138234205Y-70795808D01*
X138234205Y-70986284D02*
X138186586Y-70891046D01*
X138186586Y-70891046D02*
X138138967Y-70843427D01*
X138138967Y-70843427D02*
X138043729Y-70795808D01*
X138043729Y-70795808D02*
X137948491Y-70795808D01*
X158996115Y-72405752D02*
X158996115Y-73405752D01*
X158996115Y-72453371D02*
X158900877Y-72405752D01*
X158900877Y-72405752D02*
X158710401Y-72405752D01*
X158710401Y-72405752D02*
X158615163Y-72453371D01*
X158615163Y-72453371D02*
X158567544Y-72500990D01*
X158567544Y-72500990D02*
X158519925Y-72596228D01*
X158519925Y-72596228D02*
X158519925Y-72881942D01*
X158519925Y-72881942D02*
X158567544Y-72977180D01*
X158567544Y-72977180D02*
X158615163Y-73024800D01*
X158615163Y-73024800D02*
X158710401Y-73072419D01*
X158710401Y-73072419D02*
X158900877Y-73072419D01*
X158900877Y-73072419D02*
X158996115Y-73024800D01*
X157662782Y-73072419D02*
X157662782Y-72548609D01*
X157662782Y-72548609D02*
X157710401Y-72453371D01*
X157710401Y-72453371D02*
X157805639Y-72405752D01*
X157805639Y-72405752D02*
X157996115Y-72405752D01*
X157996115Y-72405752D02*
X158091353Y-72453371D01*
X157662782Y-73024800D02*
X157758020Y-73072419D01*
X157758020Y-73072419D02*
X157996115Y-73072419D01*
X157996115Y-73072419D02*
X158091353Y-73024800D01*
X158091353Y-73024800D02*
X158138972Y-72929561D01*
X158138972Y-72929561D02*
X158138972Y-72834323D01*
X158138972Y-72834323D02*
X158091353Y-72739085D01*
X158091353Y-72739085D02*
X157996115Y-72691466D01*
X157996115Y-72691466D02*
X157758020Y-72691466D01*
X157758020Y-72691466D02*
X157662782Y-72643847D01*
X156758020Y-73072419D02*
X156758020Y-72072419D01*
X156758020Y-73024800D02*
X156853258Y-73072419D01*
X156853258Y-73072419D02*
X157043734Y-73072419D01*
X157043734Y-73072419D02*
X157138972Y-73024800D01*
X157138972Y-73024800D02*
X157186591Y-72977180D01*
X157186591Y-72977180D02*
X157234210Y-72881942D01*
X157234210Y-72881942D02*
X157234210Y-72596228D01*
X157234210Y-72596228D02*
X157186591Y-72500990D01*
X157186591Y-72500990D02*
X157138972Y-72453371D01*
X157138972Y-72453371D02*
X157043734Y-72405752D01*
X157043734Y-72405752D02*
X156853258Y-72405752D01*
X156853258Y-72405752D02*
X156758020Y-72453371D01*
X155662781Y-72405752D02*
X155281829Y-72405752D01*
X155519924Y-72072419D02*
X155519924Y-72929561D01*
X155519924Y-72929561D02*
X155472305Y-73024800D01*
X155472305Y-73024800D02*
X155377067Y-73072419D01*
X155377067Y-73072419D02*
X155281829Y-73072419D01*
X154805638Y-73072419D02*
X154900876Y-73024800D01*
X154900876Y-73024800D02*
X154948495Y-72977180D01*
X154948495Y-72977180D02*
X154996114Y-72881942D01*
X154996114Y-72881942D02*
X154996114Y-72596228D01*
X154996114Y-72596228D02*
X154948495Y-72500990D01*
X154948495Y-72500990D02*
X154900876Y-72453371D01*
X154900876Y-72453371D02*
X154805638Y-72405752D01*
X154805638Y-72405752D02*
X154662781Y-72405752D01*
X154662781Y-72405752D02*
X154567543Y-72453371D01*
X154567543Y-72453371D02*
X154519924Y-72500990D01*
X154519924Y-72500990D02*
X154472305Y-72596228D01*
X154472305Y-72596228D02*
X154472305Y-72881942D01*
X154472305Y-72881942D02*
X154519924Y-72977180D01*
X154519924Y-72977180D02*
X154567543Y-73024800D01*
X154567543Y-73024800D02*
X154662781Y-73072419D01*
X154662781Y-73072419D02*
X154805638Y-73072419D01*
X153281828Y-73072419D02*
X153281828Y-72405752D01*
X153281828Y-72596228D02*
X153234209Y-72500990D01*
X153234209Y-72500990D02*
X153186590Y-72453371D01*
X153186590Y-72453371D02*
X153091352Y-72405752D01*
X153091352Y-72405752D02*
X152996114Y-72405752D01*
X152281828Y-73024800D02*
X152377066Y-73072419D01*
X152377066Y-73072419D02*
X152567542Y-73072419D01*
X152567542Y-73072419D02*
X152662780Y-73024800D01*
X152662780Y-73024800D02*
X152710399Y-72929561D01*
X152710399Y-72929561D02*
X152710399Y-72548609D01*
X152710399Y-72548609D02*
X152662780Y-72453371D01*
X152662780Y-72453371D02*
X152567542Y-72405752D01*
X152567542Y-72405752D02*
X152377066Y-72405752D01*
X152377066Y-72405752D02*
X152281828Y-72453371D01*
X152281828Y-72453371D02*
X152234209Y-72548609D01*
X152234209Y-72548609D02*
X152234209Y-72643847D01*
X152234209Y-72643847D02*
X152710399Y-72739085D01*
X151900875Y-72405752D02*
X151662780Y-73072419D01*
X151662780Y-73072419D02*
X151424685Y-72405752D01*
X150662780Y-73024800D02*
X150758018Y-73072419D01*
X150758018Y-73072419D02*
X150948494Y-73072419D01*
X150948494Y-73072419D02*
X151043732Y-73024800D01*
X151043732Y-73024800D02*
X151091351Y-72929561D01*
X151091351Y-72929561D02*
X151091351Y-72548609D01*
X151091351Y-72548609D02*
X151043732Y-72453371D01*
X151043732Y-72453371D02*
X150948494Y-72405752D01*
X150948494Y-72405752D02*
X150758018Y-72405752D01*
X150758018Y-72405752D02*
X150662780Y-72453371D01*
X150662780Y-72453371D02*
X150615161Y-72548609D01*
X150615161Y-72548609D02*
X150615161Y-72643847D01*
X150615161Y-72643847D02*
X151091351Y-72739085D01*
X150186589Y-73072419D02*
X150186589Y-72405752D01*
X150186589Y-72596228D02*
X150138970Y-72500990D01*
X150138970Y-72500990D02*
X150091351Y-72453371D01*
X150091351Y-72453371D02*
X149996113Y-72405752D01*
X149996113Y-72405752D02*
X149900875Y-72405752D01*
X149615160Y-73024800D02*
X149519922Y-73072419D01*
X149519922Y-73072419D02*
X149329446Y-73072419D01*
X149329446Y-73072419D02*
X149234208Y-73024800D01*
X149234208Y-73024800D02*
X149186589Y-72929561D01*
X149186589Y-72929561D02*
X149186589Y-72881942D01*
X149186589Y-72881942D02*
X149234208Y-72786704D01*
X149234208Y-72786704D02*
X149329446Y-72739085D01*
X149329446Y-72739085D02*
X149472303Y-72739085D01*
X149472303Y-72739085D02*
X149567541Y-72691466D01*
X149567541Y-72691466D02*
X149615160Y-72596228D01*
X149615160Y-72596228D02*
X149615160Y-72548609D01*
X149615160Y-72548609D02*
X149567541Y-72453371D01*
X149567541Y-72453371D02*
X149472303Y-72405752D01*
X149472303Y-72405752D02*
X149329446Y-72405752D01*
X149329446Y-72405752D02*
X149234208Y-72453371D01*
X148377065Y-73024800D02*
X148472303Y-73072419D01*
X148472303Y-73072419D02*
X148662779Y-73072419D01*
X148662779Y-73072419D02*
X148758017Y-73024800D01*
X148758017Y-73024800D02*
X148805636Y-72929561D01*
X148805636Y-72929561D02*
X148805636Y-72548609D01*
X148805636Y-72548609D02*
X148758017Y-72453371D01*
X148758017Y-72453371D02*
X148662779Y-72405752D01*
X148662779Y-72405752D02*
X148472303Y-72405752D01*
X148472303Y-72405752D02*
X148377065Y-72453371D01*
X148377065Y-72453371D02*
X148329446Y-72548609D01*
X148329446Y-72548609D02*
X148329446Y-72643847D01*
X148329446Y-72643847D02*
X148805636Y-72739085D01*
X146710398Y-73072419D02*
X146710398Y-72072419D01*
X146710398Y-73024800D02*
X146805636Y-73072419D01*
X146805636Y-73072419D02*
X146996112Y-73072419D01*
X146996112Y-73072419D02*
X147091350Y-73024800D01*
X147091350Y-73024800D02*
X147138969Y-72977180D01*
X147138969Y-72977180D02*
X147186588Y-72881942D01*
X147186588Y-72881942D02*
X147186588Y-72596228D01*
X147186588Y-72596228D02*
X147138969Y-72500990D01*
X147138969Y-72500990D02*
X147091350Y-72453371D01*
X147091350Y-72453371D02*
X146996112Y-72405752D01*
X146996112Y-72405752D02*
X146805636Y-72405752D01*
X146805636Y-72405752D02*
X146710398Y-72453371D01*
X146234207Y-73072419D02*
X146234207Y-72405752D01*
X146234207Y-72072419D02*
X146281826Y-72120038D01*
X146281826Y-72120038D02*
X146234207Y-72167657D01*
X146234207Y-72167657D02*
X146186588Y-72120038D01*
X146186588Y-72120038D02*
X146234207Y-72072419D01*
X146234207Y-72072419D02*
X146234207Y-72167657D01*
X145758017Y-73072419D02*
X145758017Y-72405752D01*
X145758017Y-72596228D02*
X145710398Y-72500990D01*
X145710398Y-72500990D02*
X145662779Y-72453371D01*
X145662779Y-72453371D02*
X145567541Y-72405752D01*
X145567541Y-72405752D02*
X145472303Y-72405752D01*
X144758017Y-73024800D02*
X144853255Y-73072419D01*
X144853255Y-73072419D02*
X145043731Y-73072419D01*
X145043731Y-73072419D02*
X145138969Y-73024800D01*
X145138969Y-73024800D02*
X145186588Y-72929561D01*
X145186588Y-72929561D02*
X145186588Y-72548609D01*
X145186588Y-72548609D02*
X145138969Y-72453371D01*
X145138969Y-72453371D02*
X145043731Y-72405752D01*
X145043731Y-72405752D02*
X144853255Y-72405752D01*
X144853255Y-72405752D02*
X144758017Y-72453371D01*
X144758017Y-72453371D02*
X144710398Y-72548609D01*
X144710398Y-72548609D02*
X144710398Y-72643847D01*
X144710398Y-72643847D02*
X145186588Y-72739085D01*
X143853255Y-73024800D02*
X143948493Y-73072419D01*
X143948493Y-73072419D02*
X144138969Y-73072419D01*
X144138969Y-73072419D02*
X144234207Y-73024800D01*
X144234207Y-73024800D02*
X144281826Y-72977180D01*
X144281826Y-72977180D02*
X144329445Y-72881942D01*
X144329445Y-72881942D02*
X144329445Y-72596228D01*
X144329445Y-72596228D02*
X144281826Y-72500990D01*
X144281826Y-72500990D02*
X144234207Y-72453371D01*
X144234207Y-72453371D02*
X144138969Y-72405752D01*
X144138969Y-72405752D02*
X143948493Y-72405752D01*
X143948493Y-72405752D02*
X143853255Y-72453371D01*
X143567540Y-72405752D02*
X143186588Y-72405752D01*
X143424683Y-72072419D02*
X143424683Y-72929561D01*
X143424683Y-72929561D02*
X143377064Y-73024800D01*
X143377064Y-73024800D02*
X143281826Y-73072419D01*
X143281826Y-73072419D02*
X143186588Y-73072419D01*
X142853254Y-73072419D02*
X142853254Y-72405752D01*
X142853254Y-72072419D02*
X142900873Y-72120038D01*
X142900873Y-72120038D02*
X142853254Y-72167657D01*
X142853254Y-72167657D02*
X142805635Y-72120038D01*
X142805635Y-72120038D02*
X142853254Y-72072419D01*
X142853254Y-72072419D02*
X142853254Y-72167657D01*
X142234207Y-73072419D02*
X142329445Y-73024800D01*
X142329445Y-73024800D02*
X142377064Y-72977180D01*
X142377064Y-72977180D02*
X142424683Y-72881942D01*
X142424683Y-72881942D02*
X142424683Y-72596228D01*
X142424683Y-72596228D02*
X142377064Y-72500990D01*
X142377064Y-72500990D02*
X142329445Y-72453371D01*
X142329445Y-72453371D02*
X142234207Y-72405752D01*
X142234207Y-72405752D02*
X142091350Y-72405752D01*
X142091350Y-72405752D02*
X141996112Y-72453371D01*
X141996112Y-72453371D02*
X141948493Y-72500990D01*
X141948493Y-72500990D02*
X141900874Y-72596228D01*
X141900874Y-72596228D02*
X141900874Y-72881942D01*
X141900874Y-72881942D02*
X141948493Y-72977180D01*
X141948493Y-72977180D02*
X141996112Y-73024800D01*
X141996112Y-73024800D02*
X142091350Y-73072419D01*
X142091350Y-73072419D02*
X142234207Y-73072419D01*
X141472302Y-72405752D02*
X141472302Y-73072419D01*
X141472302Y-72500990D02*
X141424683Y-72453371D01*
X141424683Y-72453371D02*
X141329445Y-72405752D01*
X141329445Y-72405752D02*
X141186588Y-72405752D01*
X141186588Y-72405752D02*
X141091350Y-72453371D01*
X141091350Y-72453371D02*
X141043731Y-72548609D01*
X141043731Y-72548609D02*
X141043731Y-73072419D01*
X123186704Y-82856265D02*
X123186704Y-83332455D01*
X123472419Y-82761027D02*
X122472419Y-83094360D01*
X122472419Y-83094360D02*
X123472419Y-83427693D01*
X123424800Y-84189598D02*
X123472419Y-84094360D01*
X123472419Y-84094360D02*
X123472419Y-83903884D01*
X123472419Y-83903884D02*
X123424800Y-83808646D01*
X123424800Y-83808646D02*
X123377180Y-83761027D01*
X123377180Y-83761027D02*
X123281942Y-83713408D01*
X123281942Y-83713408D02*
X122996228Y-83713408D01*
X122996228Y-83713408D02*
X122900990Y-83761027D01*
X122900990Y-83761027D02*
X122853371Y-83808646D01*
X122853371Y-83808646D02*
X122805752Y-83903884D01*
X122805752Y-83903884D02*
X122805752Y-84094360D01*
X122805752Y-84094360D02*
X122853371Y-84189598D01*
X123424800Y-85046741D02*
X123472419Y-84951503D01*
X123472419Y-84951503D02*
X123472419Y-84761027D01*
X123472419Y-84761027D02*
X123424800Y-84665789D01*
X123424800Y-84665789D02*
X123377180Y-84618170D01*
X123377180Y-84618170D02*
X123281942Y-84570551D01*
X123281942Y-84570551D02*
X122996228Y-84570551D01*
X122996228Y-84570551D02*
X122900990Y-84618170D01*
X122900990Y-84618170D02*
X122853371Y-84665789D01*
X122853371Y-84665789D02*
X122805752Y-84761027D01*
X122805752Y-84761027D02*
X122805752Y-84951503D01*
X122805752Y-84951503D02*
X122853371Y-85046741D01*
X123424800Y-85856265D02*
X123472419Y-85761027D01*
X123472419Y-85761027D02*
X123472419Y-85570551D01*
X123472419Y-85570551D02*
X123424800Y-85475313D01*
X123424800Y-85475313D02*
X123329561Y-85427694D01*
X123329561Y-85427694D02*
X122948609Y-85427694D01*
X122948609Y-85427694D02*
X122853371Y-85475313D01*
X122853371Y-85475313D02*
X122805752Y-85570551D01*
X122805752Y-85570551D02*
X122805752Y-85761027D01*
X122805752Y-85761027D02*
X122853371Y-85856265D01*
X122853371Y-85856265D02*
X122948609Y-85903884D01*
X122948609Y-85903884D02*
X123043847Y-85903884D01*
X123043847Y-85903884D02*
X123139085Y-85427694D01*
X123472419Y-86475313D02*
X123424800Y-86380075D01*
X123424800Y-86380075D02*
X123329561Y-86332456D01*
X123329561Y-86332456D02*
X122472419Y-86332456D01*
X123424800Y-87237218D02*
X123472419Y-87141980D01*
X123472419Y-87141980D02*
X123472419Y-86951504D01*
X123472419Y-86951504D02*
X123424800Y-86856266D01*
X123424800Y-86856266D02*
X123329561Y-86808647D01*
X123329561Y-86808647D02*
X122948609Y-86808647D01*
X122948609Y-86808647D02*
X122853371Y-86856266D01*
X122853371Y-86856266D02*
X122805752Y-86951504D01*
X122805752Y-86951504D02*
X122805752Y-87141980D01*
X122805752Y-87141980D02*
X122853371Y-87237218D01*
X122853371Y-87237218D02*
X122948609Y-87284837D01*
X122948609Y-87284837D02*
X123043847Y-87284837D01*
X123043847Y-87284837D02*
X123139085Y-86808647D01*
X123472419Y-87713409D02*
X122805752Y-87713409D01*
X122996228Y-87713409D02*
X122900990Y-87761028D01*
X122900990Y-87761028D02*
X122853371Y-87808647D01*
X122853371Y-87808647D02*
X122805752Y-87903885D01*
X122805752Y-87903885D02*
X122805752Y-87999123D01*
X123472419Y-88761028D02*
X122948609Y-88761028D01*
X122948609Y-88761028D02*
X122853371Y-88713409D01*
X122853371Y-88713409D02*
X122805752Y-88618171D01*
X122805752Y-88618171D02*
X122805752Y-88427695D01*
X122805752Y-88427695D02*
X122853371Y-88332457D01*
X123424800Y-88761028D02*
X123472419Y-88665790D01*
X123472419Y-88665790D02*
X123472419Y-88427695D01*
X123472419Y-88427695D02*
X123424800Y-88332457D01*
X123424800Y-88332457D02*
X123329561Y-88284838D01*
X123329561Y-88284838D02*
X123234323Y-88284838D01*
X123234323Y-88284838D02*
X123139085Y-88332457D01*
X123139085Y-88332457D02*
X123091466Y-88427695D01*
X123091466Y-88427695D02*
X123091466Y-88665790D01*
X123091466Y-88665790D02*
X123043847Y-88761028D01*
X122805752Y-89094362D02*
X122805752Y-89475314D01*
X122472419Y-89237219D02*
X123329561Y-89237219D01*
X123329561Y-89237219D02*
X123424800Y-89284838D01*
X123424800Y-89284838D02*
X123472419Y-89380076D01*
X123472419Y-89380076D02*
X123472419Y-89475314D01*
X123472419Y-89808648D02*
X122805752Y-89808648D01*
X122472419Y-89808648D02*
X122520038Y-89761029D01*
X122520038Y-89761029D02*
X122567657Y-89808648D01*
X122567657Y-89808648D02*
X122520038Y-89856267D01*
X122520038Y-89856267D02*
X122472419Y-89808648D01*
X122472419Y-89808648D02*
X122567657Y-89808648D01*
X123472419Y-90427695D02*
X123424800Y-90332457D01*
X123424800Y-90332457D02*
X123377180Y-90284838D01*
X123377180Y-90284838D02*
X123281942Y-90237219D01*
X123281942Y-90237219D02*
X122996228Y-90237219D01*
X122996228Y-90237219D02*
X122900990Y-90284838D01*
X122900990Y-90284838D02*
X122853371Y-90332457D01*
X122853371Y-90332457D02*
X122805752Y-90427695D01*
X122805752Y-90427695D02*
X122805752Y-90570552D01*
X122805752Y-90570552D02*
X122853371Y-90665790D01*
X122853371Y-90665790D02*
X122900990Y-90713409D01*
X122900990Y-90713409D02*
X122996228Y-90761028D01*
X122996228Y-90761028D02*
X123281942Y-90761028D01*
X123281942Y-90761028D02*
X123377180Y-90713409D01*
X123377180Y-90713409D02*
X123424800Y-90665790D01*
X123424800Y-90665790D02*
X123472419Y-90570552D01*
X123472419Y-90570552D02*
X123472419Y-90427695D01*
X122805752Y-91189600D02*
X123472419Y-91189600D01*
X122900990Y-91189600D02*
X122853371Y-91237219D01*
X122853371Y-91237219D02*
X122805752Y-91332457D01*
X122805752Y-91332457D02*
X122805752Y-91475314D01*
X122805752Y-91475314D02*
X122853371Y-91570552D01*
X122853371Y-91570552D02*
X122948609Y-91618171D01*
X122948609Y-91618171D02*
X123472419Y-91618171D01*
X147256265Y-112013295D02*
X147732455Y-112013295D01*
X147161027Y-111727580D02*
X147494360Y-112727580D01*
X147494360Y-112727580D02*
X147827693Y-111727580D01*
X148161027Y-112394247D02*
X148161027Y-111727580D01*
X148161027Y-112299009D02*
X148208646Y-112346628D01*
X148208646Y-112346628D02*
X148303884Y-112394247D01*
X148303884Y-112394247D02*
X148446741Y-112394247D01*
X148446741Y-112394247D02*
X148541979Y-112346628D01*
X148541979Y-112346628D02*
X148589598Y-112251390D01*
X148589598Y-112251390D02*
X148589598Y-111727580D01*
X149494360Y-112394247D02*
X149494360Y-111584723D01*
X149494360Y-111584723D02*
X149446741Y-111489485D01*
X149446741Y-111489485D02*
X149399122Y-111441866D01*
X149399122Y-111441866D02*
X149303884Y-111394247D01*
X149303884Y-111394247D02*
X149161027Y-111394247D01*
X149161027Y-111394247D02*
X149065789Y-111441866D01*
X149494360Y-111775200D02*
X149399122Y-111727580D01*
X149399122Y-111727580D02*
X149208646Y-111727580D01*
X149208646Y-111727580D02*
X149113408Y-111775200D01*
X149113408Y-111775200D02*
X149065789Y-111822819D01*
X149065789Y-111822819D02*
X149018170Y-111918057D01*
X149018170Y-111918057D02*
X149018170Y-112203771D01*
X149018170Y-112203771D02*
X149065789Y-112299009D01*
X149065789Y-112299009D02*
X149113408Y-112346628D01*
X149113408Y-112346628D02*
X149208646Y-112394247D01*
X149208646Y-112394247D02*
X149399122Y-112394247D01*
X149399122Y-112394247D02*
X149494360Y-112346628D01*
X150113408Y-111727580D02*
X150018170Y-111775200D01*
X150018170Y-111775200D02*
X149970551Y-111870438D01*
X149970551Y-111870438D02*
X149970551Y-112727580D01*
X150875313Y-111775200D02*
X150780075Y-111727580D01*
X150780075Y-111727580D02*
X150589599Y-111727580D01*
X150589599Y-111727580D02*
X150494361Y-111775200D01*
X150494361Y-111775200D02*
X150446742Y-111870438D01*
X150446742Y-111870438D02*
X150446742Y-112251390D01*
X150446742Y-112251390D02*
X150494361Y-112346628D01*
X150494361Y-112346628D02*
X150589599Y-112394247D01*
X150589599Y-112394247D02*
X150780075Y-112394247D01*
X150780075Y-112394247D02*
X150875313Y-112346628D01*
X150875313Y-112346628D02*
X150922932Y-112251390D01*
X150922932Y-112251390D02*
X150922932Y-112156152D01*
X150922932Y-112156152D02*
X150446742Y-112060914D01*
D11*
X124475158Y-74688525D02*
X124407815Y-74688525D01*
X124407815Y-74688525D02*
X124306800Y-74722197D01*
X124306800Y-74722197D02*
X124138441Y-74890556D01*
X124138441Y-74890556D02*
X124104769Y-74991571D01*
X124104769Y-74991571D02*
X124104769Y-75058915D01*
X124104769Y-75058915D02*
X124138441Y-75159930D01*
X124138441Y-75159930D02*
X124205784Y-75227273D01*
X124205784Y-75227273D02*
X124340471Y-75294617D01*
X124340471Y-75294617D02*
X125148593Y-75294617D01*
X125148593Y-75294617D02*
X124710861Y-75732350D01*
X124340471Y-75968052D02*
X124340471Y-76035395D01*
X124340471Y-76035395D02*
X124407815Y-76035395D01*
X124407815Y-76035395D02*
X124407815Y-75968052D01*
X124407815Y-75968052D02*
X124340471Y-75968052D01*
X124340471Y-75968052D02*
X124407815Y-76035395D01*
X123465006Y-75698677D02*
X123397663Y-75698677D01*
X123397663Y-75698677D02*
X123296647Y-75732349D01*
X123296647Y-75732349D02*
X123128289Y-75900708D01*
X123128289Y-75900708D02*
X123094617Y-76001723D01*
X123094617Y-76001723D02*
X123094617Y-76069067D01*
X123094617Y-76069067D02*
X123128289Y-76170082D01*
X123128289Y-76170082D02*
X123195632Y-76237426D01*
X123195632Y-76237426D02*
X123330319Y-76304769D01*
X123330319Y-76304769D02*
X124138441Y-76304769D01*
X124138441Y-76304769D02*
X123700708Y-76742502D01*
X123397663Y-77045548D02*
X122690556Y-76338441D01*
X123060945Y-76843517D02*
X123128289Y-77314922D01*
X122656884Y-76843517D02*
X123195632Y-76843517D01*
X125111473Y-99175158D02*
X125111473Y-99107815D01*
X125111473Y-99107815D02*
X125077801Y-99006800D01*
X125077801Y-99006800D02*
X124909442Y-98838441D01*
X124909442Y-98838441D02*
X124808427Y-98804769D01*
X124808427Y-98804769D02*
X124741083Y-98804769D01*
X124741083Y-98804769D02*
X124640068Y-98838441D01*
X124640068Y-98838441D02*
X124572725Y-98905784D01*
X124572725Y-98905784D02*
X124505381Y-99040471D01*
X124505381Y-99040471D02*
X124505381Y-99848593D01*
X124505381Y-99848593D02*
X124067648Y-99410861D01*
X123831946Y-99040471D02*
X123764603Y-99040471D01*
X123764603Y-99040471D02*
X123764603Y-99107815D01*
X123764603Y-99107815D02*
X123831946Y-99107815D01*
X123831946Y-99107815D02*
X123831946Y-99040471D01*
X123831946Y-99040471D02*
X123764603Y-99107815D01*
X124101321Y-98165006D02*
X124101321Y-98097663D01*
X124101321Y-98097663D02*
X124067649Y-97996647D01*
X124067649Y-97996647D02*
X123899290Y-97828289D01*
X123899290Y-97828289D02*
X123798275Y-97794617D01*
X123798275Y-97794617D02*
X123730931Y-97794617D01*
X123730931Y-97794617D02*
X123629916Y-97828289D01*
X123629916Y-97828289D02*
X123562572Y-97895632D01*
X123562572Y-97895632D02*
X123495229Y-98030319D01*
X123495229Y-98030319D02*
X123495229Y-98838441D01*
X123495229Y-98838441D02*
X123057496Y-98400708D01*
X122754450Y-98097663D02*
X123461557Y-97390556D01*
X122956481Y-97760945D02*
X122485076Y-97828289D01*
X122956481Y-97356884D02*
X122956481Y-97895632D01*
%TO.C,JP4*%
D12*
X155050000Y-64900000D02*
X155050000Y-65500000D01*
X155700000Y-66200000D02*
X158500000Y-66200000D01*
X158300000Y-66400000D02*
X158000000Y-66700000D01*
X158300000Y-66400000D02*
X158600000Y-66700000D01*
X158500000Y-64200000D02*
X155700000Y-64200000D01*
X158600000Y-66700000D02*
X158000000Y-66700000D01*
X159150000Y-65500000D02*
X159150000Y-64900000D01*
X155050000Y-64900000D02*
G75*
G02*
X155750000Y-64200000I700000J0D01*
G01*
X155750000Y-66200000D02*
G75*
G02*
X155050000Y-65500000I0J700000D01*
G01*
X158450000Y-64200000D02*
G75*
G02*
X159150000Y-64900000I1J-699999D01*
G01*
X159150000Y-65500000D02*
G75*
G02*
X158450000Y-66200000I-699999J-1D01*
G01*
%TO.C,JP1*%
X137950000Y-64900000D02*
X137950000Y-65500000D01*
X138500000Y-63700000D02*
X139100000Y-63700000D01*
X138600000Y-66200000D02*
X141400000Y-66200000D01*
X138800000Y-64000000D02*
X138500000Y-63700000D01*
X138800000Y-64000000D02*
X139100000Y-63700000D01*
X141400000Y-64200000D02*
X138600000Y-64200000D01*
X142050000Y-65500000D02*
X142050000Y-64900000D01*
X137950000Y-64900000D02*
G75*
G02*
X138650000Y-64200000I699999J1D01*
G01*
X138650000Y-66200000D02*
G75*
G02*
X137950000Y-65500000I-1J699999D01*
G01*
X141350000Y-64200000D02*
G75*
G02*
X142050000Y-64900000I0J-700000D01*
G01*
X142050000Y-65500000D02*
G75*
G02*
X141350000Y-66200000I-700000J0D01*
G01*
%TO.C,R2*%
X120464680Y-76535320D02*
X121136432Y-75863568D01*
X124523473Y-72476527D02*
X123851722Y-73148278D01*
X124502260Y-73798816D02*
X121786970Y-76514106D01*
X120485894Y-75213030D01*
X123201184Y-72497740D01*
X124502260Y-73798816D01*
%TO.C,R1*%
X120464681Y-97864681D02*
X121136432Y-98536432D01*
X124523474Y-101923474D02*
X123851722Y-101251722D01*
X124502260Y-100601184D02*
X123201184Y-101902260D01*
X120485894Y-99186970D01*
X121786970Y-97885894D01*
X124502260Y-100601184D01*
%TO.C,JP3*%
X150250000Y-64900000D02*
X150250000Y-65500000D01*
X150900000Y-66200000D02*
X153700000Y-66200000D01*
X153500000Y-66400000D02*
X153200000Y-66700000D01*
X153500000Y-66400000D02*
X153800000Y-66700000D01*
X153700000Y-64200000D02*
X150900000Y-64200000D01*
X153800000Y-66700000D02*
X153200000Y-66700000D01*
X154350000Y-65500000D02*
X154350000Y-64900000D01*
X150250000Y-64900000D02*
G75*
G02*
X150950000Y-64200000I700000J0D01*
G01*
X150950000Y-66200000D02*
G75*
G02*
X150250000Y-65500000I0J700000D01*
G01*
X153650000Y-64200000D02*
G75*
G02*
X154350000Y-64900000I1J-699999D01*
G01*
X154350000Y-65500000D02*
G75*
G02*
X153650000Y-66200000I-699999J-1D01*
G01*
%TO.C,JP2*%
X142750000Y-64900000D02*
X142750000Y-65500000D01*
X143300000Y-63700000D02*
X143900000Y-63700000D01*
X143400000Y-66200000D02*
X146200000Y-66200000D01*
X143600000Y-64000000D02*
X143300000Y-63700000D01*
X143600000Y-64000000D02*
X143900000Y-63700000D01*
X146200000Y-64200000D02*
X143400000Y-64200000D01*
X146850000Y-65500000D02*
X146850000Y-64900000D01*
X142750000Y-64900000D02*
G75*
G02*
X143450000Y-64200000I699999J1D01*
G01*
X143450000Y-66200000D02*
G75*
G02*
X142750000Y-65500000I-1J699999D01*
G01*
X146150000Y-64200000D02*
G75*
G02*
X146850000Y-64900000I0J-700000D01*
G01*
X146850000Y-65500000D02*
G75*
G02*
X146150000Y-66200000I-700000J0D01*
G01*
%TD*%
M02*
